<svg xmlns="http://www.w3.org/2000/svg" width="612" height="303" viewBox="0 246.5 612 303" enable-background="new 0 246.5 612 303"><path fill="#8A8200" stroke="#000" stroke-width="1.354" stroke-miterlimit="10" d="M108.1 268.7l13.1 76.1h-17.5l-14.4-22.9 5.6 23H77.5l-52.7-76.1h18.9l30.4 45-12.8-45h10.1l25.9 45-8.3-45 19.1-.1zm69.3 66.8l-8.3 9.5h-21.8l-14.4-9.5-19.3-54.2 8.3-12.4h25.2l15.8 12.4 14.5 54.2zm-18.2-5l-13-43.4h-12.1l13.9 43.4h11.2zm70.9 14.7h-16.4l-5.2-27.2H197l5.9 27.2h-16.4l-19.3-76.3H205l14.6 12.4 3.4 20.9-7 7.6 9.5 7.6 4.6 27.8zm-25-43.7l-2.7-14.4h-12.1l3.1 14.4h11.7zm75.1 43.7h-16.4l-14-27.9 3.2 27.9h-16.4l-11.3-76.1h18.9l3.8 33.3 8.8-33.3h18.9L263.5 310l16.7 35.2zm79.4-9.7l-11.9 9.5h-21.8l-10.8-9.5.7-54.2 12.8-12.4h25.2l11.3 12.4-5.5 54.2zm-16.4-5l3.1-43.4h-12.1l-2.2 43.4h11.2zm65.5 14.7h-16.4L397 318h-11.3l-4.1 27.2h-16.4l8.8-76.1h37.8l10.1 12.4-4.3 20.9-9.7 7.6 6.7 7.6-5.9 27.6zm-9-43.7l2.5-14.4h-12.1l-2.1 14.4h11.7zm61.9 34l-13.9 9.5H415l16.9-76.1h37.8l8.8 12.4-16.9 54.2zm-15.3-5l11.9-43.4h-12.1l-11 43.4h11.2zm56.9 14.7H465l24.7-76.1h44.1l-7.4 18.4h-24.3l-5.2 14.4h23.6l-6.5 16.2h-23l-4.5 12.8h22.3l-5.6 14.3zm50.2 0H537l13-27.2h-11.3l-12.2 27.2H510l31.7-76.1h37.8l6.5 12.4-10.6 20.9-12.1 7.6 4.5 7.6-14.4 27.6zm4.2-43.7l6.8-14.4h-12.1l-6.5 14.4h11.8zM182.4 413.1h-14L149.9 358h16l16.5 55.1zm43.2 0h-14l-14.4-20.5 5.2 20.5h-14l-16-55.1h16l16.2 23.8L199 358h15.8l10.8 55.1zm38.7-55.1l-7 55.1h-18.7l-23-55.1h15.8l14 38.2 2.9-38.2h16zm44.7 55.1h-14l-1.8-7h-11.9l-1.1 7h-14l8.1-55.1h21.2l13.5 55.1zm-18.9-18.2l-4.5-17.1-2.7 17.1h7.2zm57.9 11l-10.1 7h-18.7l-9.4-7v-7.4h14.6l-.2 3.8h9.5l.5-9.4h-14.8l-9.7-7.7v-18.5l10.6-8.8h21.2l9.7 8.8-.9 8.5H335l.4-4.1h-10.3l-.4 10.3h15.1l9.4 7.9-1.2 16.6zm18.9 7.2h-14l5.8-55.1h16l-7.8 55.1zm44.9-7.2l-11.2 7h-18.7l-8.5-7 5.9-39.4 11.9-8.8h21.2l8.5 8.8-9.1 39.4zm-13.5-3.6l6.5-31.5h-10.3l-5.8 31.5h9.6zm54.7 10.8h-14l-3.4-20.5-5.9 20.5h-14l14.2-55.1h16l3.1 23.8 7.4-23.8h16L453 413.1z"/><linearGradient id="a" gradientUnits="userSpaceOnUse" x1="297.861" y1="-310.609" x2="297.861" y2="-417.95" gradientTransform="matrix(1.391 0 0 1.391 -108.995 852.726)"><stop offset="0" stop-color="#fff"/><stop offset="1" stop-color="#FDDF46"/></linearGradient><path fill="url(#a)" stroke="#000" stroke-width="1.4" stroke-miterlimit="10" d="M101.3 271.6l13.5 78.8h-18L82 326.7l5.8 23.8h-18l-54.5-78.8h19.4l31.5 46.4L53 271.6h10.4L90.2 318l-8.6-46.4h19.7zm71.8 68.8l-8.6 9.9H142l-14.8-9.9-20-56.2 8.5-12.8h26.1l16.4 12.8 14.9 56.2zm-18.9-4.9l-13.3-45h-12.6l14.4 45h11.5zm73.2 15h-16.9l-5.6-28.3H193l6.1 28.3h-16.9l-19.8-78.8h39.1l15.1 12.8 3.4 21.6-7.2 7.9 9.7 7.7 4.9 28.8zm-25.7-45l-2.9-14.9h-12.6l3.2 14.9h12.3zm77.6 45h-16.9L248 321.7l3.4 28.8h-16.9l-11.7-78.8h19.6l4 34.4 9-34.4H275L262.4 314l16.9 36.5zm82.1-10.1l-12.2 9.9h-22.5l-11.2-9.9.7-56.2 13.1-12.8h26.1l11.7 12.8-5.7 56.2zm-17-4.9l3.1-45h-12.6l-2.2 45h11.7zm67.7 15h-16.9l4.9-28.3h-11.9l-4.3 28.3H367l9.2-78.8h39.1l10.4 12.8-4.5 21.6-10.1 7.9 7 7.7-6 28.8zm-9.2-45l2.5-14.9h-12.6l-2.2 14.9h12.3zm64.1 34.9l-14.4 9.9h-33.8l17.5-78.8h39.1l9 12.8-17.4 56.1zm-15.8-4.9l12.4-45H451l-11.3 45h11.5zm58.8 15h-39.4l25.4-78.8h45.5l-7.5 18.8h-25.2l-5.2 14.9H528l-6.8 16.9h-23.8l-4.7 13.1H516l-6 15.1zm51.9 0H545l13.3-28.3h-11.9l-12.6 28.3h-16.9l32.8-78.8h39.1l6.5 12.8-11 21.6-12.6 7.9 4.5 7.7-14.3 28.8zm4.3-45l7-14.9h-12.6l-6.6 14.9h12.2zM178.3 420.7h-14.6l-19.3-57.1H161l17.3 57.1zm44.5 0h-14.6l-14.9-21.1 5.4 21.1h-14.6l-16.4-57.1h16.6l16.7 24.5-5.8-24.5h16.6l11 57.1zm40.3-57.1l-7.2 57.1h-19.3l-23.8-57.1h16.4l14.4 39.6 3.1-39.6h16.4zm45.9 57.1h-14.4l-2-7.4h-12.4l-1.1 7.4h-14.4l8.3-57.1h22l14 57.1zm-19.5-18.8l-4.5-17.6-2.9 17.6h7.4zm59.8 11.4l-10.4 7.4h-19.3l-9.7-7.4v-7.4h14.9l-.2 4h9.9l.5-9.5h-15l-10.1-8.1V373l11-9h22l10.1 9-.9 8.8h-15.8l.4-4.3h-10.6l-.4 10.8h15.7l9.7 8.3-1.8 16.7zm19.6 7.4h-14.6l6.1-57.1H377l-8.1 57.1zm46.5-7.4l-11.5 7.4h-19.3l-8.6-7.4 6.3-40.7 12.4-9h22l8.8 9-10.1 40.7zm-14.1-3.6l6.8-32.6h-10.6l-6.1 32.6h9.9zm56.9 11h-14.6l-3.4-21.1-6.1 21.1h-14.6l14.6-57.1h16.6l3.2 24.5 7.6-24.5H478l-19.8 57.1z"/><g fill="#fff"><path d="M194.9 510.4h-22.4v-4.3H168v-4.5h-4.5v-13.7h4.3v-4.5h4.5v-4.3h22.6v4.3h-17.8v4.5h-4.6v13.4h4.4v4.6h8.9v-8.8h-4.3v-4.5h13.4v17.8zM229.5 510.4h-9v-8.9h-13.4v8.9h-9V488h4.3v-4.5h4.6V479h13.5v4.3h4.5v4.5h4.5v22.6zm-9-13.5v-9.1H216v-4.2h-4.6v4.5h-4.3v8.9h13.4v-.1zM264.2 510.4h-8.9V497h-4.5v4.4h-4.5V497H242v13.4h-9.1V479h8.9v4.3h4.6v4.6h4.3v-4.4h4.6V479h9v31.4h-.1zM299.4 510.2h-31.8v-31.7h31.8v4.4h-22.6v9h13.5v4.7h-13.5v9.1h22.6v4.5zM341.5 505.9h-4.3v4.5h-22.6v-4.3h-4.5v-22.6h4.3V479H337v4.3h4.5v22.6zm-9 0v-22.3h-13.4v22.3h13.4zM376.2 496.9h-4.3v4.5h-4.5v4.5h-4.5v4.5h-4.5v-4.3h-4.6v-4.5h-4.4v-4.5h-4.5V479h8.9v13.2h4.6v4.7h4.3v-4.4h4.6V479h9v17.9h-.1zM411.4 510.2h-31.8v-31.7h31.8v4.4h-22.6v9h13.5v4.7h-13.5v9.1h22.6v4.5zM445.5 496.9h-9v4.3h4.5v4.6h4.5v4.5h-13.4v-4.2h-4.5v-4.6h-4.5v8.9h-9V479H441v4.3h4.5v13.6zm-9-4.5v-8.8h-13.4V497h9v-4.5h4.4v-.1z"/></g></svg>