<svg xmlns="http://www.w3.org/2000/svg" viewBox="0 0 72 72" enable-background="new 0 0 72 72"><path fill="#4C4D4D" d="M62.6 37.2c.1.3.1 2.9-.4 4.6 3.3 1.2 5.1 3.2 5.1 6 0 6.3-12.8 11.5-28.5 11.5-5 0-9.6-.5-13.7-1.4 4.9 1.8 11.1 2.9 17.9 2.9 15.8 0 29-6 29-13.3 0-4.3-2.1-8.6-9.4-10.3zM15.3 26.7s-3.8-3.4-5.2-7.1c-1.2-3.2-.3-6.7 3.5-8 4.4-1.6 6.5 1.4 6.9 5.1.3 3.2-.9 7.2-.9 7.2l-4.3 2.8z"/><g fill="#4C4D4D"><path d="M61.5 35.2c-.1-1.1-.2-2.3-.5-3.5l-.3-1.5c-3.3-13-15.2-15.8-27.4-11.8.2.7.4 2.1.4 3.3.3 9.2-6.7 11.4-6.7 11.4s.4-8.1.6-12.5c-.2.1.2-.1 0 0C12.3 27.5 0 43.4 0 43.4s16.7 8.7 32.7 11.3c15.3 2.4 30-3 28.8-19.5zM32.7 21.6c0-1.3-.2-2.2-.4-3-1-3.8-3.5-1.8-3.5-1.8 0 .6-.1 1.8-.2 3.2-.2 4.5-.6 11.4-.6 11.4s4.9-1.6 4.7-9.8z"/></g><ellipse fill="#fff" cx="20.5" cy="34.2" rx="1.7" ry="1.6"/><path fill="#fff" d="M7.7 42.1s7.6-4.7 17.2-.1c.1 0-8.8-3.7-17.2.1z"/><path fill="#4C4D4D" d="M7.2 43s4.9-2 10.1 1.8c0-.1-4.8-3.2-10.1-1.8z"/></svg>