<svg xmlns="http://www.w3.org/2000/svg" viewBox="0 0 72 72" enable-background="new 0 0 72 72"><g fill="#1E76BA"><path d="M57.1 62.7c.1-.2.2-.4.2-.7v-.9c0-.6-.5-1-1-1h-13v-4.4c2.1-.4 2.4-1 2.5-1.5.3-1.1-2.5-2.1-2.5-2.1v.1-2.8c2.1-.4 2.4-.9 2.5-1.5.3-1.1-2.5-2.1-2.5-2.1v.1-2.8c2.1-.4 2.4-.9 2.5-1.5.3-1.1-2.5-2.1-2.5-2.1v.1-2.8c2.1-.4 2.4-.9 2.5-1.5.3-1.1-2.5-2.1-2.5-2.1v.1-2.8c2.1-.4 2.4-.9 2.5-1.5.3-1.1-2.5-2.1-2.5-2.1v.1-2.8c2.1-.4 2.4-.9 2.5-1.5.3-1.1-2.5-2.1-2.5-2.1v.1-1.5s0-.4-.2-1.3c1.5-.4 1.8-.9 2-1.4.3-1.1-2.7-1.9-2.7-1.9v.1c-.2-.9-.5-1.8-.8-2.9 1.2-.4 1.8-.9 1.9-1.2.2-.9-2.5-1.4-2.7-1.5-.4-1.1-.8-2.4-1.2-3.7.8-.3 1.1-.7 1.2-1 .1-.6-1.6-.9-1.9-.9-.1-.2-.1-.3-.2-.5-.8-2.4-1.5-3-2.2-3-.7 0-1.3.6-2.2 2.9-.1.6-.3 1.1-.5 1.6h-.1c-1.4.1-3.2 1-.6 2-.6 1.6-1 3.1-1.4 4.4-1.7.2-4.7.9-.7 2.5-.4 1.5-.7 2.8-.9 3.7-2.3.3-5.4 1.1-.4 3.2v-.7 3.8c-2.3.3-5 1.1 0 3.2V26v3.7c-2.3.3-5 1.1 0 3.2v-.6V36c-2.3.3-5 1.1 0 3.2v-.6 3.7c-2.3.3-5 1.1 0 3.2v-.6 3.7c-2.3.3-5 1.1 0 3.2v-.6 3.7c-2.3.3-5 1.1 0 3.2v-.6 2.7h-14c-.6 0-1 .5-1 1v.8c0 .2.1.4.2.6l.1.1c1 1.1 8.6 9.3 21.1 9.3h-.2c13.3 0 21.2-9.3 21.2-9.3zM57.1 62.7c.1-.2.2-.4.2-.7v-.9c0-.6-.5-1-1-1h-13v-4.4c2.1-.4 2.4-1 2.5-1.5.3-1.1-2.5-2.1-2.5-2.1v.1-2.8c2.1-.4 2.4-.9 2.5-1.5.3-1.1-2.5-2.1-2.5-2.1v.1-2.8c2.1-.4 2.4-.9 2.5-1.5.3-1.1-2.5-2.1-2.5-2.1v.1-2.8c2.1-.4 2.4-.9 2.5-1.5.3-1.1-2.5-2.1-2.5-2.1v.1-2.8c2.1-.4 2.4-.9 2.5-1.5.3-1.1-2.5-2.1-2.5-2.1v.1-2.8c2.1-.4 2.4-.9 2.5-1.5.3-1.1-2.5-2.1-2.5-2.1v.1-1.5s0-.4-.2-1.3c1.5-.4 1.8-.9 2-1.4.3-1.1-2.7-1.9-2.7-1.9v.1c-.2-.9-.5-1.8-.8-2.9 1.2-.4 1.8-.9 1.9-1.2.2-.9-2.5-1.4-2.7-1.5-.4-1.1-.8-2.4-1.2-3.7.8-.3 1.1-.7 1.2-1 .1-.6-1.6-.9-1.9-.9-.1-.2-.1-.3-.2-.5-.8-2.4-1.5-3-2.2-3-.7 0-1.3.6-2.2 2.9-.1.6-.3 1.1-.5 1.6h-.1c-1.4.1-3.2 1-.6 2-.6 1.6-1 3.1-1.4 4.4-1.7.2-4.7.9-.7 2.5-.4 1.5-.7 2.8-.9 3.7-2.3.3-5.4 1.1-.4 3.2v-.7 3.8c-2.3.3-5 1.1 0 3.2V26v3.7c-2.3.3-5 1.1 0 3.2v-.6V36c-2.3.3-5 1.1 0 3.2v-.6 3.7c-2.3.3-5 1.1 0 3.2v-.6 3.7c-2.3.3-5 1.1 0 3.2v-.6 3.7c-2.3.3-5 1.1 0 3.2v-.6 2.7h-14c-.6 0-1 .5-1 1v.8c0 .2.1.4.2.6l.1.1c1 1.1 8.6 9.3 21.1 9.3h-.2c13.3 0 21.2-9.3 21.2-9.3zM42.3 55.9c2.9-.5 3.3-1 3.5-1.7.3-1.1-2.5-2.1-2.5-2.1s.1 1.1-2.7 1.4c-2.9.3-6.1.7-10 1.1-2.4.3-6.5 1-.8 3.3v-.7c0 .1 5-.1 12.5-1.3zM42.3 49.6c2.9-.5 3.3-1 3.5-1.7.3-1.1-2.5-2.1-2.5-2.1s.1 1.1-2.7 1.4c-2.9.3-6.1.7-10 1.1-2.4.3-6.5 1-.8 3.3v-.7c0 .1 5-.1 12.5-1.3zM42.3 43.3c2.9-.5 3.3-1 3.5-1.7.3-1.1-2.5-2.1-2.5-2.1s.1 1.1-2.7 1.4c-2.9.3-6.1.7-10 1.1-2.4.3-6.5 1-.8 3.3v-.7c0 .1 5 0 12.5-1.3zM42.3 37.1c2.9-.5 3.3-1 3.5-1.7.3-1.1-2.5-2.1-2.5-2.1s.1 1.1-2.7 1.4c-2.9.3-6.1.7-10 1.1-2.4.3-6.5 1-.8 3.3v-.7c0 .1 5-.1 12.5-1.3zM42.3 30.8c2.9-.5 3.3-1 3.5-1.7.3-1.1-2.5-2.1-2.5-2.1s.1 1.1-2.7 1.4c-2.9.3-6.1.7-10 1.1-2.4.3-6.5 1-.8 3.3v-.7c0 .1 5-.1 12.5-1.3zM42.3 24.5c2.9-.5 3.3-1 3.5-1.7.3-1.1-2.5-2.1-2.5-2.1s.1 1.1-2.7 1.4c-2.9.3-6.1.7-10 1.1-2.4.3-6.5 1-.8 3.3v-.7c0 .1 5-.1 12.5-1.3zM41.6 18.3c2.8-.4 3.3-1.1 3.5-1.8.3-1.1-2.7-1.9-2.7-1.9s.2 1.1-2.4 1.3c-2.8.3-5.8.7-9.4 1.1-2.2.3-6.1 1.1-.8 3.3v-.7s4.7-.1 11.8-1.3zM40.2 12.1c2.1-.3 3.3-1.1 3.3-1.6.2-1-2.7-1.5-2.7-1.5s.1.8-1.8 1c-2.1.2-4.4.5-7.2.8-1.7.2-4.8.9-.8 2.5l.2-.5c-.1.1 3.6.2 9-.7zM38.2 5.8c1.7-.3 2.5-1 2.6-1.4.1-.6-1.9-.9-1.9-.9s-.1.5-1.3.6c-1.6.2-2.2.3-3.9.4-1.4.1-3.2 1-.6 2l.1-.3s1.6.1 5-.4zM44.6 58.9H27.1M58.3 62c0 .6-.5 1-1 1H14.7c-.6 0-1-.5-1-1"/></g></svg>