<svg xmlns="http://www.w3.org/2000/svg" viewBox="0 0 72 72" enable-background="new 0 0 72 72"><path fill="#1E76BA" d="M45.5 19h-19c-1.5 0-2.7 1.2-2.7 2.7v36.5c0 1.5 1.2 2.7 2.7 2.7h18.9c1.5 0 2.7-1.2 2.7-2.7V21.7c.1-1.5-1.1-2.7-2.6-2.7zm-13.3 2.5h7.5c.3 0 .6.3.6.6s-.3.6-.6.6h-7.5c-.3 0-.6-.3-.6-.6 0-.4.3-.6.6-.6zM36 59.2c-1.1 0-2-.9-2-2s.9-2 2-2 2 .9 2 2c0 1.2-.9 2-2 2zm9.3-5.9H26.7V24.9h18.6v28.4zM0 53.5h24.2V35.3L0 45.5zM72 53.5H47.8V35.3L72 45.5zM45.7 67H26.3l2-6.5h15.4zM28.3 20.4L36 5l7.7 15.4z"/></svg>