<svg xmlns="http://www.w3.org/2000/svg" width="612" height="303" viewBox="0 246.5 612 303" enable-background="new 0 246.5 612 303"><path fill="#8A8200" stroke="#000" stroke-width="1.354" stroke-miterlimit="10" d="M108.1 268.7l13.1 76.1h-17.5l-14.4-22.9 5.6 23H77.5l-52.7-76.1h18.9l30.4 45-12.8-45h10.1l25.9 45-8.3-45 19.1-.1zm69.3 66.8l-8.3 9.5h-21.8l-14.4-9.5-19.3-54.2 8.3-12.4h25.2l15.8 12.4 14.5 54.2zm-18.2-5l-13-43.4h-12.1l13.9 43.4h11.2zm70.9 14.7h-16.4l-5.2-27.2H197l5.9 27.2h-16.4l-19.3-76.3H205l14.6 12.4 3.4 20.9-7 7.6 9.5 7.6 4.6 27.8zm-25-43.7l-2.7-14.4h-12.1l3.1 14.4h11.7zm75.1 43.7h-16.4l-14-27.9 3.2 27.9h-16.4l-11.3-76.1h18.9l3.8 33.3 8.8-33.3h18.9L263.5 310l16.7 35.2zm79.4-9.7l-11.9 9.5h-21.8l-10.8-9.5.7-54.2 12.8-12.4h25.2l11.3 12.4-5.5 54.2zm-16.4-5l3.1-43.4h-12.1l-2.2 43.4h11.2zm65.5 14.7h-16.4L397 318h-11.3l-4.1 27.2h-16.4l8.8-76.1h37.8l10.1 12.4-4.3 20.9-9.7 7.6 6.7 7.6-5.9 27.6zm-9-43.7l2.5-14.4h-12.1l-2.1 14.4h11.7zm61.9 34l-13.9 9.5H415l16.9-76.1h37.8l8.8 12.4-16.9 54.2zm-15.3-5l11.9-43.4h-12.1l-11 43.4h11.2zm56.9 14.7H465l24.7-76.1h44.1l-7.4 18.4h-24.3l-5.2 14.4h23.6l-6.5 16.2h-23l-4.5 12.8h22.3l-5.6 14.3zm50.2 0H537l13-27.2h-11.3l-12.2 27.2H510l31.7-76.1h37.8l6.5 12.4-10.6 20.9-12.1 7.6 4.5 7.6-14.4 27.6zm4.2-43.7l6.8-14.4h-12.1l-6.5 14.4h11.8zM182.4 413.1h-14L149.9 358h16l16.5 55.1zm43.2 0h-14l-14.4-20.5 5.2 20.5h-14l-16-55.1h16l16.2 23.8L199 358h15.8l10.8 55.1zm38.7-55.1l-7 55.1h-18.7l-23-55.1h15.8l14 38.2 2.9-38.2h16zm44.7 55.1h-14l-1.8-7h-11.9l-1.1 7h-14l8.1-55.1h21.2l13.5 55.1zm-18.9-18.2l-4.5-17.1-2.7 17.1h7.2zm57.9 11l-10.1 7h-18.7l-9.4-7v-7.4h14.6l-.2 3.8h9.5l.5-9.4h-14.8l-9.7-7.7v-18.5l10.6-8.8h21.2l9.7 8.8-.9 8.5H335l.4-4.1h-10.3l-.4 10.3h15.1l9.4 7.9-1.2 16.6zm18.9 7.2h-14l5.8-55.1h16l-7.8 55.1zm44.9-7.2l-11.2 7h-18.7l-8.5-7 5.9-39.4 11.9-8.8h21.2l8.5 8.8-9.1 39.4zm-13.5-3.6l6.5-31.5h-10.3l-5.8 31.5h9.6zm54.7 10.8h-14l-3.4-20.5-5.9 20.5h-14l14.2-55.1h16l3.1 23.8 7.4-23.8h16L453 413.1z"/><linearGradient id="a" gradientUnits="userSpaceOnUse" x1="297.861" y1="-310.609" x2="297.861" y2="-417.95" gradientTransform="matrix(1.391 0 0 1.391 -108.995 852.726)"><stop offset="0" stop-color="#fff"/><stop offset="1" stop-color="#FDDF46"/></linearGradient><path fill="url(#a)" stroke="#000" stroke-width="1.4" stroke-miterlimit="10" d="M101.3 271.6l13.5 78.8h-18L82 326.7l5.8 23.8h-18l-54.5-78.8h19.4l31.5 46.4L53 271.6h10.4L90.2 318l-8.6-46.4h19.7zm71.8 68.8l-8.6 9.9H142l-14.8-9.9-20-56.2 8.5-12.8h26.1l16.4 12.8 14.9 56.2zm-18.9-4.9l-13.3-45h-12.6l14.4 45h11.5zm73.2 15h-16.9l-5.6-28.3H193l6.1 28.3h-16.9l-19.8-78.8h39.1l15.1 12.8 3.4 21.6-7.2 7.9 9.7 7.7 4.9 28.8zm-25.7-45l-2.9-14.9h-12.6l3.2 14.9h12.3zm77.6 45h-16.9L248 321.7l3.4 28.8h-16.9l-11.7-78.8h19.6l4 34.4 9-34.4H275L262.4 314l16.9 36.5zm82.1-10.1l-12.2 9.9h-22.5l-11.2-9.9.7-56.2 13.1-12.8h26.1l11.7 12.8-5.7 56.2zm-17-4.9l3.1-45h-12.6l-2.2 45h11.7zm67.7 15h-16.9l4.9-28.3h-11.9l-4.3 28.3H367l9.2-78.8h39.1l10.4 12.8-4.5 21.6-10.1 7.9 7 7.7-6 28.8zm-9.2-45l2.5-14.9h-12.6l-2.2 14.9h12.3zm64.1 34.9l-14.4 9.9h-33.8l17.5-78.8h39.1l9 12.8-17.4 56.1zm-15.8-4.9l12.4-45H451l-11.3 45h11.5zm58.8 15h-39.4l25.4-78.8h45.5l-7.5 18.8h-25.2l-5.2 14.9H528l-6.8 16.9h-23.8l-4.7 13.1H516l-6 15.1zm51.9 0H545l13.3-28.3h-11.9l-12.6 28.3h-16.9l32.8-78.8h39.1l6.5 12.8-11 21.6-12.6 7.9 4.5 7.7-14.3 28.8zm4.3-45l7-14.9h-12.6l-6.6 14.9h12.2zM178.3 420.7h-14.6l-19.3-57.1H161l17.3 57.1zm44.5 0h-14.6l-14.9-21.1 5.4 21.1h-14.6l-16.4-57.1h16.6l16.7 24.5-5.8-24.5h16.6l11 57.1zm40.3-57.1l-7.2 57.1h-19.3l-23.8-57.1h16.4l14.4 39.6 3.1-39.6h16.4zm45.9 57.1h-14.4l-2-7.4h-12.4l-1.1 7.4h-14.4l8.3-57.1h22l14 57.1zm-19.5-18.8l-4.5-17.6-2.9 17.6h7.4zm59.8 11.4l-10.4 7.4h-19.3l-9.7-7.4v-7.4h14.9l-.2 4h9.9l.5-9.5h-15l-10.1-8.1V373l11-9h22l10.1 9-.9 8.8h-15.8l.4-4.3h-10.6l-.4 10.8h15.7l9.7 8.3-1.8 16.7zm19.6 7.4h-14.6l6.1-57.1H377l-8.1 57.1zm46.5-7.4l-11.5 7.4h-19.3l-8.6-7.4 6.3-40.7 12.4-9h22l8.8 9-10.1 40.7zm-14.1-3.6l6.8-32.6h-10.6l-6.1 32.6h9.9zm56.9 11h-14.6l-3.4-21.1-6.1 21.1h-14.6l14.6-57.1h16.6l3.2 24.5 7.6-24.5H478l-19.8 57.1z"/><linearGradient id="b" gradientUnits="userSpaceOnUse" x1="218.783" y1="459.554" x2="218.783" y2="536.849"><stop offset=".355" stop-color="#FFB229"/><stop offset="1" stop-color="#DB5512"/></linearGradient><path fill="url(#b)" d="M221.253 508.777c0 9.264-2.9 17.852-7.84 24.905.546.107 1.086.218 1.62.33 5.833-7.775 9.303-17.426 9.303-27.896 0-11.513-4.188-22.038-11.106-30.166v7.67c5.045 7.102 8.023 15.778 8.023 25.157z"/><linearGradient id="c" gradientUnits="userSpaceOnUse" x1="136.868" y1="459.555" x2="136.868" y2="536.85"><stop offset=".355" stop-color="#FFB229"/><stop offset="1" stop-color="#DB5512"/></linearGradient><path fill="url(#c)" d="M134.293 508.777c0-9.505 3.06-18.29 8.23-25.45v-7.614c-7.044 8.156-11.31 18.776-11.313 30.403.003 10.47 3.47 20.12 9.302 27.896.534-.112 1.075-.223 1.62-.33-4.94-7.053-7.84-15.64-7.84-24.905z"/><path fill="#fff" d="M145 508.194l10.132-9.952h-3.14v-7.018h7.016v3.21l2.852-2.8v-.41h.417l3.143-3.082h-3.56v-7.018h7.015v3.618l6.99-6.864v-43.804l-30.863 26.645v47.474zm16.86-47.27h7.014v7.017h-7.015v-7.016zm0 10.1h7.014v7.015h-7.015v-7.016zm-9.868-10.1h7.016v7.017h-7.016v-7.016zm0 10.1h7.016v7.015h-7.016v-7.016zm0 10.1h7.016v7.02h-7.016v-7.02zM179.886 445.297v32.236l6.994 6.937v-1.473h7.015v7.014h-1.433l4.284 4.248v-1.164h7.016v7.02h-1.12l8.108 8.043V471.94l-30.864-26.643zm14.01 34.613h-7.016v-7.014h7.015v7.014zm9.866 10.1h-7.016v-7.013h7.016v7.014zm0-10.1h-7.016v-7.014h7.016v7.014zM151.215 532.666v-21.18H145v22.148c.364-.063.716-.134 1.08-.194 1.668-.284 3.392-.533 5.135-.774zM210.75 533.672v-22.186h-6.17v21.22c1.658.226 3.3.466 4.888.734.435.073.852.158 1.282.232z"/><linearGradient id="d" gradientUnits="userSpaceOnUse" x1="177.773" y1="478.876" x2="177.773" y2="539.496"><stop offset=".355" stop-color="#00ADEE"/><stop offset="1" stop-color="#12306D"/></linearGradient><path fill="url(#d)" d="M212.74 536.074c-1.18-.23-2.384-.445-3.605-.65-2.228-.38-4.53-.715-6.893-1.01V509.17h6.22l-30.53-30.294-30.845 30.294h6.22v25.245c-2.362.294-4.667.63-6.892 1.01-1.225.204-2.432.42-3.605.65-4.902.957-9.393 2.105-13.362 3.42 4.776-.583 19.546-2.253 48.327-2.692 28.778-.438 43.547 2.11 48.322 2.693-3.967-1.315-8.458-2.464-13.357-3.422zm-36.39-21.114h-7.02v-7.016h7.02v7.016zm0-9.868h-7.02v-7.014h7.02v7.014zm9.866 9.868H179.2v-7.016h7.016v7.016zm0-9.868H179.2v-7.014h7.016v7.014z"/><g fill="#fff"><path d="M234.038 460.524c-.363-.875-.637-1.054-1.21-1.214-.24-.063-.495-.063-.62-.063-.146 0-.193-.047-.193-.144 0-.125.174-.144.414-.144.846 0 1.758.048 2.313.048.4 0 1.165-.05 1.963-.05.19 0 .367.035.367.145 0 .114-.097.144-.24.144-.253 0-.492.017-.622.112-.11.08-.158.19-.158.335 0 .207.142.652.367 1.23l2.745 7.246h.063c.687-1.757 2.76-6.896 3.142-7.948.082-.206.145-.45.145-.59 0-.13-.063-.258-.208-.307-.193-.062-.428-.078-.638-.078-.146 0-.274-.015-.274-.128 0-.126.146-.16.45-.16.797 0 1.467.05 1.68.05.266 0 1.016-.05 1.493-.05.208 0 .335.034.335.144 0 .114-.096.144-.255.144s-.493 0-.78.192c-.207.145-.447.414-.88 1.435-.62 1.502-1.054 2.363-1.915 4.326-1.02 2.332-1.77 4.07-2.122 4.866-.414.93-.51 1.184-.732 1.184-.207 0-.303-.222-.608-.973l-4.024-9.753zM250.95 463.59c0-2.425 0-2.876-.03-3.384-.033-.543-.192-.812-.544-.896-.177-.046-.38-.063-.575-.063-.155 0-.25-.03-.25-.158 0-.096.124-.13.383-.13.604 0 1.61.05 2.07.05.4 0 1.343-.05 1.948-.05.21 0 .338.034.338.13 0 .128-.097.157-.256.157-.16 0-.288.017-.478.05-.434.077-.56.352-.594.908-.03.508-.03.96-.03 3.384v2.808c0 1.55 0 2.807.064 3.495.048.432.16.717.64.782.222.03.574.063.814.063.173 0 .25.05.25.128 0 .11-.124.16-.3.16-1.053 0-2.06-.05-2.49-.05-.366 0-1.372.05-2.012.05-.207 0-.318-.05-.318-.16 0-.08.066-.128.256-.128.24 0 .43-.034.576-.063.317-.065.413-.335.462-.798.078-.673.078-1.93.078-3.48v-2.807zM260.667 463.59c0-2.425 0-2.876-.034-3.384-.03-.543-.158-.798-.684-.91-.13-.03-.4-.048-.626-.048-.173 0-.272-.03-.272-.144 0-.11.114-.144.354-.144.847 0 1.85.05 2.188.05.54 0 1.752-.05 2.248-.05 1.005 0 2.074.097 2.935.688.448.3 1.085 1.115 1.085 2.183 0 1.186-.492 2.27-2.107 3.577 1.423 1.785 2.524 3.21 3.464 4.197.894.924 1.548 1.038 1.788 1.085.174.033.32.048.447.048.13 0 .193.05.193.128 0 .128-.115.16-.305.16h-1.515c-.896 0-1.295-.082-1.71-.303-.687-.37-1.293-1.12-2.187-2.348-.64-.88-1.37-1.963-1.577-2.203-.078-.095-.177-.11-.29-.11l-1.386-.033c-.08 0-.13.033-.13.128v.222c0 1.487 0 2.746.082 3.418.047.46.144.812.62.877.237.03.592.063.784.063.13 0 .192.05.192.128 0 .11-.114.16-.32.16-.926 0-2.105-.05-2.35-.05-.302 0-1.305.05-1.944.05-.207 0-.318-.05-.318-.16 0-.08.065-.128.256-.128.24 0 .43-.034.573-.063.317-.065.4-.416.462-.877.08-.672.08-1.93.08-3.4v-2.808zm1.882 1.26c0 .175.032.24.144.29.333.11.813.16 1.213.16.64 0 .847-.065 1.134-.275.482-.35.94-1.084.94-2.393 0-2.267-1.5-2.92-2.44-2.92-.402 0-.684.014-.846.062-.11.033-.145.096-.145.225v4.85zM277.426 459.854l-2.375.065c-.926.03-1.31.108-1.55.463-.16.235-.238.43-.27.557-.033.128-.082.19-.178.19-.107 0-.14-.08-.14-.256 0-.256.298-1.708.335-1.834.045-.206.092-.302.19-.302.127 0 .286.157.686.19.465.05 1.068.08 1.594.08h6.322c.51 0 .86-.05 1.1-.08.24-.048.367-.08.43-.08.11 0 .13.096.13.335 0 .336-.048 1.435-.048 1.854-.017.155-.052.254-.145.254-.126 0-.16-.08-.177-.32l-.013-.173c-.032-.414-.466-.863-1.885-.895l-2.012-.05v6.545c0 1.47 0 2.73.082 3.416.047.445.144.796.62.86.223.03.573.064.814.064.175 0 .255.05.255.128 0 .11-.127.16-.3.16-1.052 0-2.06-.05-2.51-.05-.365 0-1.37.05-2.007.05-.21 0-.32-.05-.32-.16 0-.08.063-.128.255-.128.24 0 .432-.034.573-.063.32-.065.42-.416.466-.877.078-.672.078-1.93.078-3.4v-6.543zM289.145 463.59c0-2.425 0-2.876-.032-3.384-.03-.543-.16-.798-.685-.91-.13-.03-.4-.048-.62-.048-.18 0-.273-.03-.273-.144 0-.11.11-.144.35-.144.847 0 1.853.05 2.33.05.384 0 1.39-.05 1.962-.05.244 0 .353.034.353.144 0 .114-.097.144-.256.144-.178 0-.273.017-.465.05-.428.077-.557.352-.59.908-.03.508-.03.96-.03 3.384v2.235c0 2.312.463 3.285 1.243 3.925.718.59 1.453.653 1.995.653.705 0 1.565-.223 2.202-.862.88-.878.93-2.312.93-3.956v-1.994c0-2.425 0-2.876-.035-3.384-.03-.543-.16-.798-.686-.91-.13-.03-.398-.048-.575-.048-.18 0-.27-.03-.27-.144 0-.11.11-.144.335-.144.81 0 1.82.05 1.834.05.192 0 1.198-.05 1.82-.05.22 0 .335.034.335.144 0 .114-.097.144-.29.144-.176 0-.27.017-.464.05-.43.077-.56.352-.588.908-.033.508-.033.96-.033 3.384v1.71c0 1.77-.175 3.65-1.516 4.8-1.133.974-2.283 1.15-3.32 1.15-.845 0-2.38-.047-3.543-1.102-.814-.736-1.42-1.914-1.42-4.226v-2.332zM306.363 466.86c-.08 0-.114.032-.144.13l-.863 2.28c-.16.397-.24.78-.24.975 0 .284.144.494.637.494h.243c.19 0 .237.03.237.127 0 .128-.093.16-.27.16-.51 0-1.198-.05-1.69-.05-.178 0-1.055.05-1.885.05-.21 0-.305-.032-.305-.16 0-.098.063-.128.19-.128.145 0 .367-.016.497-.035.732-.095 1.035-.64 1.356-1.434l4.005-10.022c.19-.463.285-.64.447-.64.144 0 .237.147.398.512.382.878 2.937 7.39 3.96 9.815.604 1.438 1.065 1.657 1.402 1.74.24.05.477.063.666.063.13 0 .214.015.214.128 0 .128-.148.16-.74.16-.573 0-1.734 0-3.014-.032-.285-.017-.48-.017-.48-.128 0-.098.066-.128.227-.143.11-.034.222-.177.145-.37l-1.276-3.382c-.037-.08-.082-.11-.163-.11h-3.557zm3.253-.796c.082 0 .098-.05.082-.097l-1.438-3.94c-.016-.068-.03-.144-.08-.144-.046 0-.08.075-.095.144l-1.467 3.925c-.02.063 0 .112.065.112h2.933zM322.087 466.398c0 2.042 0 3.143.333 3.428.272.24.687.354 1.93.354.848 0 1.473-.016 1.868-.45.19-.205.384-.65.416-.954.016-.144.045-.24.18-.24.105 0 .124.08.124.27 0 .176-.114 1.374-.24 1.837-.096.352-.175.43-1.005.43-1.15 0-1.98-.03-2.697-.045-.72-.033-1.293-.05-1.947-.05-.178 0-.528 0-.906.017-.374 0-.783.033-1.106.033-.206 0-.317-.05-.317-.16 0-.08.064-.13.257-.13.24 0 .43-.033.573-.062.32-.065.4-.416.462-.877.08-.673.08-1.932.08-3.4v-2.81c0-2.425 0-2.876-.03-3.384-.032-.543-.16-.798-.687-.91-.13-.03-.318-.048-.528-.048-.174 0-.267-.03-.267-.144 0-.11.11-.144.348-.144.75 0 1.756.05 2.186.05.385 0 1.55-.05 2.17-.05.226 0 .338.034.338.144 0 .114-.098.144-.29.144-.178 0-.43.017-.62.05-.433.077-.56.352-.592.908-.03.508-.03.96-.03 3.384v2.808z"/></g><linearGradient id="e" gradientUnits="userSpaceOnUse" x1="247.252" y1="477.366" x2="247.252" y2="500.316"><stop offset="0" stop-color="#00ADEE"/><stop offset=".339" stop-color="#0877B7"/><stop offset=".63" stop-color="#0D518F"/><stop offset=".86" stop-color="#113976"/><stop offset="1" stop-color="#12306D"/></linearGradient><path fill="url(#e)" d="M237.5 478.133c.092-.5.266-.767.503-.767s.414.148.796.914l8.052 16.64 8.024-16.844c.237-.474.385-.71.652-.71.264 0 .44.296.53.914l2.684 18.23c.265 1.86.56 2.717 1.447 2.983.854.264 1.443.294 1.824.294.267 0 .475.028.475.206 0 .234-.355.322-.77.322-.738 0-4.81-.088-5.988-.176-.68-.06-.856-.147-.856-.325 0-.147.117-.237.325-.322.18-.062.265-.447.147-1.27l-1.77-12.98h-.115l-6.434 13.392c-.678 1.385-.824 1.653-1.092 1.653-.265 0-.563-.592-1.03-1.476-.708-1.36-3.04-5.87-3.392-6.697-.268-.62-2.035-4.335-3.068-6.547h-.12l-1.534 11.74c-.06.53-.087.913-.087 1.386 0 .56.382.827.886.946.533.116.943.146 1.238.146.237 0 .44.06.44.206 0 .265-.264.322-.705.322-1.24 0-2.566-.088-3.1-.088-.56 0-1.977.088-2.92.088-.296 0-.53-.058-.53-.322 0-.146.177-.206.474-.206.234 0 .44 0 .883-.09.826-.176 1.06-1.328 1.21-2.332l2.92-19.23z"/><linearGradient id="f" gradientUnits="userSpaceOnUse" x1="273.578" y1="477.366" x2="273.578" y2="500.316"><stop offset="0" stop-color="#00ADEE"/><stop offset=".339" stop-color="#0877B7"/><stop offset=".63" stop-color="#0D518F"/><stop offset=".86" stop-color="#113976"/><stop offset="1" stop-color="#12306D"/></linearGradient><path fill="url(#f)" d="M269.345 492.62c-.15 0-.206.056-.268.232l-1.593 4.22c-.295.736-.442 1.446-.442 1.797 0 .532.265.918 1.184.918h.44c.355 0 .442.06.442.232 0 .238-.178.296-.502.296-.942 0-2.213-.088-3.125-.088-.326 0-1.95.088-3.48.088-.385 0-.562-.058-.562-.296 0-.173.116-.232.354-.232.264 0 .678-.03.914-.06 1.357-.18 1.92-1.18 2.508-2.655l7.405-18.526c.353-.855.527-1.18.82-1.18.27 0 .445.265.74.942.708 1.624 5.43 13.658 7.317 18.142 1.12 2.655 1.977 3.07 2.593 3.217.446.088.887.118 1.244.118.233 0 .382.028.382.232 0 .238-.27.296-1.358.296-1.063 0-3.215 0-5.573-.058-.53-.03-.886-.03-.886-.238 0-.173.115-.232.413-.263.205-.06.412-.325.26-.68l-2.357-6.254c-.058-.148-.148-.205-.295-.205h-6.575zm6.015-1.478c.146 0 .18-.086.146-.176l-2.652-7.287c-.03-.12-.058-.267-.147-.267-.087 0-.146.146-.178.266l-2.714 7.256c-.03.12 0 .206.117.206h5.427z"/><linearGradient id="g" gradientUnits="userSpaceOnUse" x1="290.289" y1="478.017" x2="290.289" y2="500.316"><stop offset="0" stop-color="#00ADEE"/><stop offset=".339" stop-color="#0877B7"/><stop offset=".63" stop-color="#0D518F"/><stop offset=".86" stop-color="#113976"/><stop offset="1" stop-color="#12306D"/></linearGradient><path fill="url(#g)" d="M288.12 486.57c0-4.484 0-5.308-.06-6.255-.057-1-.354-1.503-1-1.65-.328-.09-.707-.118-1.064-.118-.294 0-.472-.06-.472-.296 0-.174.237-.233.71-.233 1.118 0 2.98.088 3.833.088.737 0 2.48-.088 3.6-.088.383 0 .62.06.62.234 0 .238-.178.297-.472.297s-.534.027-.885.087c-.8.147-1.033.65-1.093 1.682-.058.947-.058 1.77-.058 6.255v5.195c0 2.858 0 5.19.116 6.458.088.797.295 1.326 1.183 1.446.41.06 1.06.118 1.5.118.325 0 .472.086.472.232 0 .208-.234.296-.562.296-1.944 0-3.803-.088-4.6-.088-.678 0-2.54.088-3.72.088-.38 0-.587-.088-.587-.296 0-.146.117-.232.47-.232.445 0 .797-.06 1.064-.12.59-.12.766-.62.855-1.474.147-1.24.147-3.57.147-6.43v-5.194z"/><linearGradient id="h" gradientUnits="userSpaceOnUse" x1="309.022" y1="477.515" x2="309.022" y2="500.671"><stop offset="0" stop-color="#00ADEE"/><stop offset=".339" stop-color="#0877B7"/><stop offset=".63" stop-color="#0D518F"/><stop offset=".86" stop-color="#113976"/><stop offset="1" stop-color="#12306D"/></linearGradient><path fill="url(#h)" d="M301.72 496.306c.06 2.3.443 3.067 1.032 3.273.505.178 1.063.208 1.536.208.325 0 .5.06.5.232 0 .238-.266.296-.68.296-1.918 0-3.095-.088-3.652-.088-.267 0-1.654.088-3.188.088-.384 0-.65-.027-.65-.296 0-.173.177-.232.47-.232.388 0 .916-.03 1.33-.146.77-.24.886-1.094.915-3.66l.265-17.464c0-.592.088-1.003.38-1.003.326 0 .596.384 1.098.913.352.385 4.836 5.193 9.143 9.47 2.005 2.008 5.988 6.255 6.49 6.726h.15l-.297-13.242c-.03-1.804-.295-2.363-1.003-2.657-.44-.177-1.153-.177-1.564-.177-.354 0-.472-.09-.472-.267 0-.233.325-.263.766-.263 1.534 0 2.95.088 3.568.088.328 0 1.447-.088 2.892-.088.385 0 .68.03.68.264 0 .178-.175.268-.53.268-.296 0-.53 0-.885.087-.83.237-1.063.858-1.092 2.507l-.325 18.617c0 .648-.117.912-.385.912-.323 0-.68-.324-1.003-.65-1.856-1.77-5.633-5.634-8.7-8.67-3.216-3.187-6.49-6.874-7.022-7.434h-.088l.32 12.388z"/><linearGradient id="i" gradientUnits="userSpaceOnUse" x1="333.551" y1="477.603" x2="333.551" y2="500.316"><stop offset="0" stop-color="#00ADEE"/><stop offset=".339" stop-color="#0877B7"/><stop offset=".63" stop-color="#0D518F"/><stop offset=".86" stop-color="#113976"/><stop offset="1" stop-color="#12306D"/></linearGradient><path fill="url(#i)" d="M331.93 479.67l-4.398.117c-1.71.06-2.42.205-2.862.853-.295.444-.44.795-.5 1.035-.06.233-.145.354-.323.354-.207 0-.265-.15-.265-.475 0-.47.56-3.156.62-3.392.086-.385.173-.56.35-.56.238 0 .532.295 1.27.354.855.088 1.98.146 2.947.146h11.683c.946 0 1.593-.088 2.035-.146.445-.09.68-.15.8-.15.205 0 .232.18.232.62 0 .62-.087 2.656-.087 3.425-.03.294-.09.47-.265.47-.235 0-.294-.147-.323-.59l-.03-.323c-.06-.77-.855-1.593-3.482-1.653l-3.716-.087v12.095c0 2.71 0 5.04.147 6.31.09.828.265 1.475 1.15 1.595.413.06 1.062.12 1.502.12.325 0 .472.085.472.23 0 .21-.233.297-.558.297-1.948 0-3.806-.088-4.633-.088-.678 0-2.538.087-3.716.087-.384 0-.59-.088-.59-.296 0-.145.116-.23.47-.23.445 0 .8-.06 1.064-.12.59-.12.764-.767.854-1.62.15-1.243.15-3.575.15-6.284V479.67z"/><linearGradient id="j" gradientUnits="userSpaceOnUse" x1="354.108" y1="477.778" x2="354.108" y2="500.407"><stop offset="0" stop-color="#00ADEE"/><stop offset=".339" stop-color="#0877B7"/><stop offset=".63" stop-color="#0D518F"/><stop offset=".86" stop-color="#113976"/><stop offset="1" stop-color="#12306D"/></linearGradient><path fill="url(#j)" d="M348.947 486.57c0-4.484 0-5.308-.058-6.255-.06-1-.295-1.475-1.27-1.682-.238-.06-.74-.087-1.15-.087-.325 0-.5-.06-.5-.267 0-.205.203-.265.646-.265.796 0 1.654.03 2.39.03.766.03 1.447.058 1.858.058.945 0 8.197 0 8.76-.028.56-.06 1.032-.118 1.27-.178.146-.03.32-.12.472-.12.147 0 .178.12.178.268 0 .205-.15.56-.235 1.918-.034.294-.095 1.59-.15 1.944-.03.147-.088.325-.294.325-.208 0-.268-.147-.268-.41 0-.21-.027-.71-.178-1.064-.204-.53-.502-.884-1.976-1.063-.5-.056-4.985-.12-5.574-.12-.146 0-.203.094-.203.3v7.464c0 .202.026.323.203.323.648 0 5.428 0 6.105-.06.71-.062 1.15-.148 1.415-.44.207-.24.324-.39.475-.39.116 0 .206.062.206.238s-.12.652-.233 2.152c-.032.593-.122 1.77-.122 1.978 0 .235 0 .563-.264.563-.204 0-.265-.12-.265-.27-.03-.294-.03-.676-.12-1.06-.147-.59-.56-1.033-1.65-1.152-.562-.06-4.863-.085-5.575-.085-.146 0-.173.12-.173.296v2.332c0 1-.034 3.716 0 4.57.057 2.035 1.915 2.48 4.922 2.48.765 0 2.005 0 2.77-.356.77-.353 1.123-.973 1.33-2.182.062-.325.117-.44.324-.44.233 0 .233.234.233.528 0 .68-.233 2.683-.38 3.277-.207.765-.473.765-1.595.765-2.212 0-5.22-.06-6.486-.09-1.267-.06-2.183-.09-3.067-.09-.328 0-.98 0-1.683.03-.68 0-1.447.06-2.035.06-.385 0-.592-.09-.592-.297 0-.146.12-.232.472-.232.44 0 .795-.06 1.063-.12.592-.12.738-.766.856-1.62.147-1.242.147-3.574.147-6.283v-5.193z"/><linearGradient id="k" gradientUnits="userSpaceOnUse" x1="377.236" y1="477.515" x2="377.236" y2="500.671"><stop offset="0" stop-color="#00ADEE"/><stop offset=".339" stop-color="#0877B7"/><stop offset=".63" stop-color="#0D518F"/><stop offset=".86" stop-color="#113976"/><stop offset="1" stop-color="#12306D"/></linearGradient><path fill="url(#k)" d="M369.937 496.306c.056 2.3.44 3.067 1.03 3.273.5.178 1.06.208 1.535.208.324 0 .5.06.5.232 0 .238-.266.296-.68.296-1.915 0-3.095-.088-3.657-.088-.266 0-1.65.088-3.188.088-.38 0-.647-.027-.647-.296 0-.173.177-.232.473-.232.383 0 .914-.03 1.328-.146.77-.24.887-1.094.916-3.66l.262-17.464c0-.592.09-1.003.387-1.003.324 0 .592.384 1.09.913.357.385 4.842 5.193 9.146 9.47 2.01 2.008 5.99 6.255 6.49 6.726h.148l-.295-13.242c-.03-1.804-.298-2.363-1.003-2.657-.443-.177-1.15-.177-1.563-.177-.352 0-.474-.09-.474-.267 0-.233.327-.263.768-.263 1.534 0 2.952.088 3.57.088.327 0 1.447-.088 2.892-.088.383 0 .682.03.682.264 0 .178-.18.268-.535.268-.294 0-.532 0-.884.087-.826.237-1.063.858-1.093 2.507l-.324 18.617c0 .648-.117.912-.382.912-.327 0-.68-.324-1.006-.65-1.858-1.77-5.634-5.634-8.702-8.67-3.217-3.187-6.49-6.874-7.02-7.434h-.087l.324 12.388z"/><linearGradient id="l" gradientUnits="userSpaceOnUse" x1="401.631" y1="477.366" x2="401.631" y2="500.316"><stop offset="0" stop-color="#00ADEE"/><stop offset=".339" stop-color="#0877B7"/><stop offset=".63" stop-color="#0D518F"/><stop offset=".86" stop-color="#113976"/><stop offset="1" stop-color="#12306D"/></linearGradient><path fill="url(#l)" d="M397.398 492.62c-.146 0-.21.056-.267.232l-1.593 4.22c-.294.736-.44 1.446-.44 1.797 0 .532.267.918 1.18.918h.44c.355 0 .44.06.44.232 0 .238-.174.296-.497.296-.946 0-2.213-.088-3.13-.088-.322 0-1.943.088-3.48.088-.382 0-.56-.058-.56-.296 0-.173.118-.232.356-.232.263 0 .677-.03.91-.06 1.358-.18 1.92-1.18 2.51-2.655l7.403-18.526c.356-.855.53-1.18.827-1.18.265 0 .442.265.737.942.707 1.624 5.426 13.658 7.314 18.142 1.123 2.655 1.98 3.07 2.596 3.217.44.088.887.118 1.24.118.236 0 .385.028.385.232 0 .238-.27.296-1.36.296-1.063 0-3.213 0-5.576-.058-.53-.03-.885-.03-.885-.238 0-.173.116-.232.41-.263.21-.06.415-.325.267-.68l-2.36-6.254c-.055-.148-.145-.205-.293-.205h-6.576zm6.017-1.478c.146 0 .177-.086.146-.176l-2.65-7.287c-.032-.12-.062-.267-.15-.267-.09 0-.145.146-.176.266l-2.713 7.256c-.03.12 0 .206.116.206h5.43z"/><linearGradient id="m" gradientUnits="userSpaceOnUse" x1="425.817" y1="477.515" x2="425.817" y2="500.671"><stop offset="0" stop-color="#00ADEE"/><stop offset=".339" stop-color="#0877B7"/><stop offset=".63" stop-color="#0D518F"/><stop offset=".86" stop-color="#113976"/><stop offset="1" stop-color="#12306D"/></linearGradient><path fill="url(#m)" d="M418.518 496.306c.06 2.3.443 3.067 1.03 3.273.507.178 1.064.208 1.538.208.322 0 .498.06.498.232 0 .238-.264.296-.676.296-1.918 0-3.098-.088-3.656-.088-.27 0-1.652.088-3.188.088-.385 0-.652-.027-.652-.296 0-.173.18-.232.475-.232.383 0 .914-.03 1.328-.146.766-.24.885-1.094.912-3.66l.266-17.464c0-.592.09-1.003.383-1.003.328 0 .594.384 1.092.913.355.385 4.84 5.193 9.148 9.47 2.006 2.008 5.984 6.255 6.488 6.726h.148l-.295-13.242c-.03-1.804-.297-2.363-1.006-2.657-.44-.177-1.15-.177-1.563-.177-.352 0-.47-.09-.47-.267 0-.233.323-.263.77-.263 1.532 0 2.948.088 3.567.088.324 0 1.447-.088 2.89-.088.386 0 .68.03.68.264 0 .178-.18.268-.528.268-.297 0-.533 0-.885.087-.83.237-1.063.858-1.093 2.507l-.324 18.617c0 .648-.12.912-.385.912-.324 0-.678-.324-1.002-.65-1.857-1.77-5.635-5.634-8.7-8.67-3.218-3.187-6.493-6.874-7.022-7.434h-.092l.326 12.388z"/><linearGradient id="n" gradientUnits="userSpaceOnUse" x1="450.155" y1="477.603" x2="450.155" y2="500.728"><stop offset="0" stop-color="#00ADEE"/><stop offset=".339" stop-color="#0877B7"/><stop offset=".63" stop-color="#0D518F"/><stop offset=".86" stop-color="#113976"/><stop offset="1" stop-color="#12306D"/></linearGradient><path fill="url(#n)" d="M443.564 497.515c-2.89-2.536-3.66-5.84-3.66-8.7 0-2.01.62-5.488 3.453-8.085 2.12-1.948 4.926-3.127 9.322-3.127 1.827 0 2.917.116 4.276.296 1.12.146 2.066.41 2.947.5.324.028.445.175.445.352 0 .237-.09.59-.146 1.625-.06.973-.03 2.592-.09 3.184-.03.442-.09.682-.355.682-.236 0-.293-.24-.293-.647-.03-.915-.416-1.95-1.154-2.717-.97-1.03-3.27-1.827-5.984-1.827-2.568 0-4.248.648-5.547 1.828-2.157 1.976-2.716 4.78-2.716 7.64 0 7.022 5.34 10.504 9.29 10.504 2.628 0 4.222-.297 5.4-1.653.505-.562.888-1.416 1.003-1.946.09-.475.146-.59.385-.59.207 0 .264.208.264.443 0 .353-.354 2.92-.648 3.925-.146.498-.264.648-.764.854-1.182.47-3.426.676-5.314.676-4.04-.003-7.434-.884-10.116-3.217z"/><linearGradient id="o" gradientUnits="userSpaceOnUse" x1="471.19" y1="477.778" x2="471.19" y2="500.407"><stop offset="0" stop-color="#00ADEE"/><stop offset=".339" stop-color="#0877B7"/><stop offset=".63" stop-color="#0D518F"/><stop offset=".86" stop-color="#113976"/><stop offset="1" stop-color="#12306D"/></linearGradient><path fill="url(#o)" d="M466.03 486.57c0-4.484 0-5.308-.064-6.255-.06-1-.293-1.475-1.268-1.682-.236-.06-.738-.087-1.15-.087-.324 0-.5-.06-.5-.267 0-.205.207-.265.648-.265.797 0 1.65.03 2.39.03.77.03 1.442.058 1.858.058.943 0 8.2 0 8.758-.028.564-.06 1.033-.118 1.27-.178.148-.03.326-.12.473-.12s.176.12.176.268c0 .205-.145.56-.235 1.918-.03.294-.086 1.59-.146 1.944-.032.147-.09.325-.298.325-.205 0-.262-.147-.262-.41 0-.21-.03-.71-.178-1.064-.207-.53-.502-.884-1.98-1.063-.5-.056-4.98-.12-5.57-.12-.15 0-.208.094-.208.3v7.464c0 .202.03.323.21.323.644 0 5.423 0 6.1-.06.71-.062 1.15-.148 1.42-.44.206-.24.32-.39.468-.39.12 0 .21.062.21.238s-.118.652-.237 2.152c-.027.593-.12 1.77-.12 1.978 0 .235 0 .563-.263.563-.205 0-.264-.12-.264-.27-.033-.294-.033-.676-.12-1.06-.147-.59-.56-1.033-1.65-1.152-.564-.06-4.87-.085-5.573-.085-.15 0-.18.12-.18.296v2.332c0 1-.03 3.716 0 4.57.06 2.035 1.918 2.48 4.924 2.48.765 0 2.005 0 2.772-.356.766-.353 1.12-.973 1.326-2.182.063-.325.117-.44.324-.44.238 0 .238.234.238.528 0 .68-.238 2.683-.385 3.277-.207.765-.47.765-1.594.765-2.21 0-5.218-.06-6.485-.09-1.27-.06-2.184-.09-3.068-.09-.324 0-.975 0-1.68.03-.68 0-1.447.06-2.035.06-.385 0-.592-.09-.592-.297 0-.146.117-.232.47-.232.444 0 .8-.06 1.064-.12.592-.12.738-.766.855-1.62.15-1.242.15-3.574.15-6.283v-5.193z"/><g fill="#fff"><path d="M234.98 508.884c.048-.273.145-.418.273-.418.126 0 .225.082.43.5l4.357 8.998 4.338-9.114c.13-.255.21-.384.352-.384.147 0 .243.16.288.5l1.453 9.86c.146 1.005.304 1.468.78 1.61.466.142.783.16.99.16.146 0 .26.016.26.113 0 .124-.195.173-.416.173-.397 0-2.604-.05-3.24-.097-.366-.032-.466-.077-.466-.175 0-.076.063-.127.178-.176.096-.027.144-.24.077-.686l-.957-7.023h-.063l-3.48 7.246c-.366.752-.443.898-.588.898-.144 0-.307-.322-.558-.8-.385-.736-1.646-3.175-1.838-3.622-.142-.336-1.103-2.346-1.657-3.546h-.066l-.828 6.354c-.034.29-.05.494-.05.75 0 .305.208.446.478.51.29.062.514.082.67.082.128 0 .24.032.24.112 0 .143-.145.174-.382.174-.672 0-1.39-.05-1.678-.05-.303 0-1.07.05-1.582.05-.156 0-.282-.03-.282-.174 0-.08.093-.112.255-.112.125 0 .24 0 .477-.05.447-.096.573-.717.654-1.26l1.58-10.402zM255.03 516.718c-.08 0-.112.033-.142.126l-.862 2.285c-.162.398-.24.78-.24.97 0 .29.142.498.64.498h.237c.192 0 .24.032.24.126 0 .13-.097.16-.27.16-.514 0-1.198-.05-1.694-.05-.174 0-1.054.05-1.883.05-.21 0-.303-.03-.303-.16 0-.094.063-.126.19-.126.142 0 .368-.02.496-.034.73-.094 1.036-.64 1.354-1.435l4.005-10.024c.19-.462.287-.64.445-.64.145 0 .24.145.4.513.384.877 2.936 7.388 3.96 9.812.603 1.438 1.067 1.66 1.4 1.743.244.043.48.063.67.063.13 0 .21.015.21.126 0 .13-.145.16-.734.16-.573 0-1.738 0-3.014-.03-.285-.02-.48-.02-.48-.13 0-.094.063-.126.222-.146.114-.03.227-.17.146-.365l-1.278-3.38c-.032-.082-.077-.115-.158-.115h-3.558zm3.256-.8c.082 0 .096-.045.082-.095l-1.438-3.94c-.02-.063-.033-.146-.08-.146-.05 0-.08.083-.094.145l-1.472 3.927c-.014.063 0 .11.063.11h2.94zM269.65 518.71c.033 1.248.24 1.664.562 1.774.268.094.574.113.83.113.173 0 .27.032.27.126 0 .13-.142.16-.366.16-1.04 0-1.676-.05-1.98-.05-.142 0-.893.05-1.72.05-.21 0-.353-.014-.353-.16 0-.094.096-.126.256-.126.205 0 .49-.02.715-.083.415-.125.48-.59.497-1.974l.14-9.45c0-.32.05-.543.21-.543.178 0 .32.206.59.495.192.206 2.62 2.807 4.95 5.123 1.083 1.084 3.234 3.38 3.507 3.637h.08l-.16-7.165c-.017-.974-.16-1.277-.545-1.436-.236-.096-.62-.096-.843-.096-.19 0-.255-.048-.255-.14 0-.133.173-.146.413-.146.833 0 1.596.047 1.932.047.178 0 .784-.047 1.563-.047.207 0 .372.013.372.145 0 .093-.1.14-.29.14-.16 0-.286 0-.48.05-.445.126-.576.46-.59 1.356l-.175 10.066c0 .354-.065.496-.207.496-.177 0-.37-.177-.542-.35-1.007-.956-3.05-3.05-4.71-4.69-1.74-1.726-3.51-3.722-3.798-4.022h-.048l.174 6.7zM287.707 516.718c-.08 0-.11.033-.144.126l-.862 2.285c-.157.398-.24.78-.24.97 0 .29.146.498.64.498h.24c.194 0 .238.032.238.126 0 .13-.096.16-.27.16-.514 0-1.198-.05-1.694-.05-.173 0-1.05.05-1.88.05-.21 0-.305-.03-.305-.16 0-.094.064-.126.19-.126.142 0 .367-.02.495-.034.736-.094 1.036-.64 1.357-1.435l4.004-10.024c.192-.462.29-.64.448-.64.142 0 .24.145.398.513.382.877 2.937 7.388 3.956 9.812.607 1.438 1.072 1.66 1.406 1.743.24.043.477.063.672.063.127 0 .207.015.207.126 0 .13-.145.16-.736.16-.572 0-1.74 0-3.016-.03-.288-.02-.477-.02-.477-.13 0-.094.063-.126.223-.146.113-.03.222-.17.14-.365l-1.27-3.38c-.035-.082-.082-.115-.16-.115h-3.56zm3.257-.8c.08 0 .093-.045.08-.095l-1.437-3.94c-.018-.063-.03-.146-.08-.146s-.082.083-.097.145l-1.468 3.927c-.016.063 0 .11.063.11h2.94zM311.12 519.814c0 .433-.014.464-.206.575-1.036.542-2.603.717-3.846.717-3.907 0-7.37-1.852-7.37-6.257 0-2.553 1.32-4.34 2.774-5.218 1.53-.927 2.95-1.038 4.29-1.038 1.105 0 2.506.193 2.827.255.335.062.892.158 1.26.178.19.015.223.077.223.19 0 .174-.114.623-.114 2.617 0 .254-.046.335-.173.335-.113 0-.143-.08-.158-.21-.05-.364-.13-.875-.545-1.323-.48-.51-1.755-1.245-3.557-1.245-.88 0-2.044.062-3.164.99-.892.75-1.467 1.947-1.467 3.91 0 3.43 2.188 6 5.553 6 .417 0 .975 0 1.356-.178.242-.108.307-.32.307-.587v-1.502c0-.8 0-1.404-.02-1.885-.015-.543-.154-.794-.686-.907-.126-.03-.4-.048-.622-.048-.144 0-.24-.032-.24-.13 0-.127.114-.157.337-.157.83 0 1.834.048 2.313.048.495 0 1.342-.048 1.867-.048.207 0 .318.03.318.158 0 .097-.096.13-.207.13-.126 0-.24.016-.43.047-.432.08-.59.353-.608.907-.016.48-.016 1.12-.016 1.918v1.756zM318.77 513.446c0-2.425 0-2.873-.033-3.383-.03-.543-.158-.798-.685-.91-.128-.03-.4-.048-.62-.048-.175 0-.274-.032-.274-.14 0-.116.114-.146.353-.146.433 0 .896.012 1.294.012.415.017.783.034 1.006.034.507 0 4.376 0 4.68-.018.306-.03.562-.062.687-.096.083-.015.175-.064.256-.064.082 0 .097.064.097.144 0 .113-.08.303-.127 1.04-.015.16-.05.86-.08 1.05-.02.08-.048.175-.16.175-.11 0-.144-.076-.144-.22 0-.11-.02-.385-.098-.574-.11-.29-.272-.48-1.068-.574-.27-.035-2.64-.066-2.96-.066-.077 0-.11.048-.11.16v4.04c0 .106.016.17.11.17.352 0 2.88 0 3.248-.028.382-.035.62-.08.766-.24.11-.128.174-.21.255-.21.063 0 .112.035.112.13 0 .098-.064.35-.127 1.165-.018.32-.066.96-.066 1.07 0 .127 0 .303-.144.303-.11 0-.142-.063-.142-.145-.02-.16-.02-.365-.065-.573-.08-.318-.303-.558-.89-.622-.304-.032-2.58-.05-2.96-.05-.08 0-.097.066-.097.162v1.262c0 .542-.015 2.01 0 2.474.033 1.102.98 1.34 2.608 1.34.415 0 1.085 0 1.5-.19.413-.19.608-.528.72-1.18.03-.178.062-.24.176-.24.127 0 .127.126.127.285 0 .366-.127 1.45-.207 1.77-.114.42-.256.42-.865.42-1.192 0-2.763-.036-3.45-.05-.685-.03-1.18-.05-1.66-.05-.175 0-.524 0-.91.02-.368 0-.78.03-1.098.03-.21 0-.32-.05-.32-.16 0-.082.062-.126.25-.126.244 0 .437-.035.58-.064.318-.065.396-.42.46-.882.08-.67.08-1.93.08-3.396v-2.812zM332.743 513.446c0-2.425 0-2.873-.03-3.383-.032-.543-.16-.798-.687-.91-.127-.03-.4-.048-.625-.048-.173 0-.27-.032-.27-.14 0-.116.112-.146.352-.146.847 0 1.853.046 2.188.046.54 0 1.753-.047 2.248-.047 1.006 0 2.074.092 2.936.686.447.3 1.085 1.115 1.085 2.186 0 1.178-.494 2.264-2.108 3.572 1.423 1.788 2.524 3.21 3.467 4.2.894.925 1.545 1.034 1.785 1.083.174.03.32.05.447.05.13 0 .19.044.19.126 0 .13-.112.16-.3.16h-1.52c-.89 0-1.288-.08-1.707-.306-.687-.365-1.293-1.113-2.188-2.344-.637-.877-1.37-1.962-1.58-2.2-.077-.098-.174-.115-.288-.115l-1.387-.032c-.078 0-.126.032-.126.13v.22c0 1.487 0 2.748.077 3.417.05.462.145.816.62.882.242.028.593.063.784.063.13 0 .193.044.193.126 0 .11-.114.16-.32.16-.925 0-2.104-.05-2.347-.05-.3 0-1.307.05-1.947.05-.206 0-.314-.05-.314-.16 0-.082.063-.126.253-.126.24 0 .432-.034.575-.063.318-.065.396-.42.464-.882.077-.67.077-1.93.077-3.396v-2.81zm1.886 1.262c0 .175.03.24.14.287.335.113.813.16 1.213.16.64 0 .846-.064 1.134-.272.48-.352.94-1.09.94-2.394 0-2.268-1.5-2.92-2.44-2.92-.4 0-.686.015-.847.062-.11.03-.14.097-.14.224v4.852zM347.084 519.86c0-.396.29-.972.978-.972.54 0 .97.367.97.926 0 .56-.38 1.02-.99 1.02-.668 0-.958-.523-.958-.974zM354.717 519.367c-1.562-1.373-1.975-3.16-1.975-4.708 0-1.085.33-2.968 1.866-4.372 1.147-1.057 2.662-1.693 5.043-1.693.99 0 1.58.064 2.315.16.604.078 1.117.224 1.597.273.175.015.237.096.237.19 0 .126-.05.315-.078.875-.034.528-.02 1.406-.05 1.727-.02.24-.047.365-.195.365-.13 0-.158-.125-.158-.35-.017-.498-.223-1.055-.622-1.47-.524-.56-1.77-.99-3.24-.99-1.386 0-2.3.353-3 .99-1.166 1.07-1.468 2.586-1.468 4.133 0 3.8 2.89 5.684 5.027 5.684 1.42 0 2.28-.163 2.922-.894.268-.305.475-.768.537-1.055.05-.255.085-.32.21-.32.112 0 .142.112.142.238 0 .194-.19 1.583-.353 2.127-.078.27-.14.352-.414.46-.636.257-1.85.37-2.87.37-2.185 0-4.02-.477-5.476-1.74zM368.702 514.85c0-2.728 1.805-6.255 6.59-6.255 3.977 0 6.453 2.313 6.453 5.97 0 3.656-2.558 6.543-6.61 6.543-4.58 0-6.433-3.433-6.433-6.257zm10.803.304c0-3.576-2.056-5.794-4.673-5.794-1.833 0-3.926 1.02-3.926 4.995 0 3.32 1.837 5.955 4.898 5.955 1.117 0 3.7-.54 3.7-5.156zM388.252 508.884c.05-.273.143-.418.27-.418.127 0 .223.082.433.5l4.355 8.998 4.34-9.114c.127-.255.207-.384.352-.384.142 0 .24.16.29.5l1.448 9.86c.145 1.005.303 1.468.784 1.61.462.142.78.16.987.16.147 0 .257.016.257.113 0 .124-.193.173-.415.173-.395 0-2.6-.05-3.24-.097-.364-.032-.462-.077-.462-.175 0-.076.064-.127.178-.176.097-.027.142-.24.078-.686l-.958-7.023h-.062l-3.48 7.246c-.37.752-.446.898-.59.898-.142 0-.304-.322-.56-.8-.384-.736-1.645-3.175-1.837-3.622-.142-.336-1.103-2.346-1.657-3.546h-.063l-.83 6.354c-.034.29-.05.494-.05.75 0 .305.207.446.48.51.285.062.508.082.67.082.125 0 .24.032.24.112 0 .143-.145.174-.385.174-.672 0-1.39-.05-1.678-.05-.3 0-1.066.05-1.58.05-.16 0-.287-.03-.287-.174 0-.08.1-.112.258-.112.13 0 .237 0 .478-.05.446-.096.573-.717.654-1.26l1.582-10.402z"/></g><path fill="#fff" d="M333.577 464.28v1.302h145.396v-1.302zM410.83 514.737h68.143v-1.3H410.83z"/></svg>