<?xml version="1.0" encoding="utf-8"?>
<!-- Generator: Adobe Illustrator 17.1.0, SVG Export Plug-In . SVG Version: 6.00 Build 0)  -->
<!DOCTYPE svg PUBLIC "-//W3C//DTD SVG 1.1//EN" "http://www.w3.org/Graphics/SVG/1.1/DTD/svg11.dtd">
<svg version="1.1" id="Layer_1" xmlns="http://www.w3.org/2000/svg" xmlns:xlink="http://www.w3.org/1999/xlink" x="0px" y="0px"
	 viewBox="0 0 72 72" enable-background="new 0 0 72 72" xml:space="preserve">
<path fill-rule="evenodd" clip-rule="evenodd" fill="#4C4D4D" d="M60,6.6c1.6,0,3,1.4,3,3c0,1.7-1.3,3-3,3H31.2
	c-2.6,0-4.8,2.2-4.8,4.8v4.8H6v-3.6c0-6.6,5.4-12,12-12H60z M69.6,42.6V45c0,0.7-0.5,1.2-1.2,1.2H57.6c-0.7,0-1.2-0.5-1.2-1.2v-2.4
	H69.6z M60,25.8c6.6,0,12,5.4,12,12c0,0.7-0.5,1.2-1.2,1.2H38.4c-6.6,0-12,5.4-12,12v8.4h3c1.6,0,3,1.4,3,3c0,1.7-1.3,3-3,3H3
	c-1.6,0-3-1.4-3-3c0-1.7,1.3-3,3-3h3V25.8H60z"/>
</svg>
