<?xml version="1.0" encoding="utf-8"?>
<!-- Generator: Adobe Illustrator 16.0.3, SVG Export Plug-In . SVG Version: 6.00 Build 0)  -->
<!DOCTYPE svg PUBLIC "-//W3C//DTD SVG 1.1//EN" "http://www.w3.org/Graphics/SVG/1.1/DTD/svg11.dtd">
<svg version="1.1" id="Layer_1" xmlns="http://www.w3.org/2000/svg" xmlns:xlink="http://www.w3.org/1999/xlink" x="0px" y="0px"
	 width="612px" height="303px" viewBox="0 246.5 612 303" enable-background="new 0 246.5 612 303" xml:space="preserve">
<path fill="#8A8200" stroke="#000000" stroke-width="1.3538" stroke-miterlimit="10" d="M108.1,268.7l13.1,76.1h-17.5l-14.4-22.9
	l5.6,23H77.5l-52.7-76.1h18.9l30.4,45l-12.8-45h10.1l25.9,45l-8.3-45L108.1,268.7L108.1,268.7z M177.4,335.5l-8.3,9.5h-21.8
	l-14.4-9.5l-19.3-54.2l8.3-12.4h25.2l15.8,12.4L177.4,335.5z M159.2,330.5l-13-43.4h-12.1l13.9,43.4H159.2z M230.1,345.2h-16.4
	l-5.2-27.2H197l5.9,27.2h-16.4l-19.3-76.3H205l14.6,12.4l3.4,20.9l-7,7.6l9.5,7.6L230.1,345.2z M205.1,301.5l-2.7-14.4h-12.1
	l3.1,14.4H205.1z M280.2,345.2h-16.4l-14-27.9l3.2,27.9h-16.4l-11.3-76.1h18.9l3.8,33.3l8.8-33.3h18.9L263.5,310L280.2,345.2z
	 M359.6,335.5L347.7,345h-21.8l-10.801-9.5l0.7-54.2l12.8-12.4h25.2l11.3,12.4L359.6,335.5z M343.2,330.5l3.1-43.4h-12.1l-2.2,43.4
	H343.2z M408.7,345.2h-16.4L397,318h-11.3l-4.101,27.2H365.2l8.8-76.1h37.8l10.101,12.4l-4.301,20.9L407.9,310l6.699,7.6
	L408.7,345.2z M399.7,301.5l2.5-14.4H390.1l-2.1,14.4H399.7z M461.6,335.5L447.7,345H415l16.9-76.1h37.8l8.8,12.4L461.6,335.5z
	 M446.3,330.5l11.9-43.4H446.1l-11,43.4H446.3z M503.2,345.2H465l24.7-76.1h44.1l-7.399,18.4H502.1l-5.199,14.4h23.6l-6.5,16.2h-23
	l-4.5,12.8h22.3L503.2,345.2z M553.4,345.2H537l13-27.2h-11.3l-12.2,27.2H510l31.7-76.1h37.8l6.5,12.4l-10.6,20.9L563.3,310l4.5,7.6
	L553.4,345.2z M557.6,301.5l6.801-14.4H552.3l-6.5,14.4H557.6z M182.4,413.1h-14L149.9,358h16L182.4,413.1z M225.6,413.1h-14
	l-14.4-20.5l5.2,20.5h-14l-16-55.1h16l16.2,23.8L199,358h15.8L225.6,413.1z M264.3,358l-7,55.1h-18.7l-23-55.1h15.8l14,38.2
	l2.9-38.2H264.3z M309,413.1h-14l-1.8-7h-11.9l-1.1,7h-14l8.1-55.1h21.2L309,413.1z M290.1,394.9l-4.5-17.1l-2.7,17.1H290.1z
	 M348,405.9l-10.1,7h-18.7l-9.4-7v-7.4H324.4l-0.2,3.8h9.5l0.5-9.4h-14.8l-9.7-7.7v-18.5l10.6-8.8h21.2l9.7,8.8l-0.9,8.5H335
	l0.4-4.1H325.1l-0.399,10.3h15.1l9.4,7.9L348,405.9z M366.9,413.1h-14l5.8-55.1h16L366.9,413.1z M411.8,405.9l-11.2,7H381.9l-8.5-7
	l5.899-39.4l11.9-8.8h21.2l8.5,8.8L411.8,405.9z M398.3,402.3l6.5-31.5h-10.3l-5.8,31.5H398.3z M453,413.1h-14l-3.4-20.5
	l-5.899,20.5h-14l14.2-55.1h16l3.1,23.8l7.4-23.8h16L453,413.1z"/>
<linearGradient id="SVGID_1_" gradientUnits="userSpaceOnUse" x1="297.8608" y1="-310.6089" x2="297.8608" y2="-417.9497" gradientTransform="matrix(1.3909 0 0 1.3909 -108.9954 852.7259)">
	<stop  offset="0" style="stop-color:#FFFFFF"/>
	<stop  offset="1" style="stop-color:#FDDF46"/>
</linearGradient>
<path fill="url(#SVGID_1_)" stroke="#000000" stroke-width="1.4002" stroke-miterlimit="10" d="M101.3,271.6l13.5,78.8h-18L82,326.7
	l5.8,23.8h-18l-54.5-78.8h19.4l31.5,46.4L53,271.6h10.4L90.2,318l-8.6-46.4H101.3L101.3,271.6z M173.1,340.4l-8.6,9.9H142l-14.8-9.9
	l-20-56.2l8.5-12.8h26.1l16.4,12.8L173.1,340.4z M154.2,335.5l-13.3-45h-12.6l14.4,45H154.2z M227.4,350.5h-16.9l-5.6-28.3H193
	l6.1,28.3h-16.9l-19.8-78.8h39.1l15.1,12.8l3.4,21.6l-7.2,7.9l9.7,7.7L227.4,350.5z M201.7,305.5l-2.9-14.9h-12.6l3.2,14.9H201.7z
	 M279.3,350.5h-16.9L248,321.7l3.4,28.8h-16.9l-11.7-78.8h19.6l4,34.4l9-34.4H275L262.4,314L279.3,350.5z M361.4,340.4l-12.2,9.9
	h-22.5l-11.2-9.9l0.7-56.2l13.1-12.8H355.4l11.699,12.8L361.4,340.4z M344.4,335.5l3.1-45h-12.6l-2.2,45H344.4z M412.1,350.5H395.2
	l4.899-28.3H388.2l-4.3,28.3H367l9.2-78.8h39.1l10.4,12.8l-4.5,21.6L411.1,314l7,7.7L412.1,350.5z M402.9,305.5l2.5-14.9H392.8
	l-2.2,14.9H402.9z M467,340.4l-14.4,9.9h-33.8l17.5-78.8H475.4l9,12.8L467,340.4z M451.2,335.5l12.399-45H451l-11.3,45H451.2z
	 M510,350.5h-39.4l25.4-78.8h45.5l-7.5,18.8h-25.2l-5.2,14.9H528l-6.8,16.9h-23.8l-4.7,13.1H516L510,350.5z M561.9,350.5H545
	l13.3-28.3H546.4L533.8,350.5H516.9l32.8-78.8h39.1l6.5,12.8l-11,21.6l-12.6,7.9l4.5,7.7L561.9,350.5z M566.2,305.5l7-14.9H560.6
	l-6.6,14.9H566.2z M178.3,420.7h-14.6l-19.3-57.1H161L178.3,420.7z M222.8,420.7h-14.6L193.3,399.6l5.4,21.101h-14.6l-16.4-57.1
	h16.6l16.7,24.5l-5.8-24.5h16.6L222.8,420.7z M263.1,363.6l-7.2,57.1h-19.3l-23.8-57.1h16.4l14.4,39.6l3.1-39.6H263.1z M309,420.7
	h-14.4l-2-7.4h-12.4l-1.1,7.4h-14.4l8.3-57.1h22L309,420.7z M289.5,401.9L285,384.3l-2.9,17.601H289.5z M349.3,413.3l-10.399,7.4
	H319.6l-9.699-7.4V405.9H324.8l-0.2,4h9.9l0.5-9.5h-15l-10.1-8.101V373l11-9h22l10.1,9l-0.9,8.8h-15.8l0.4-4.3H326.1l-0.399,10.8
	h15.7l9.699,8.3L349.3,413.3z M368.9,420.7H354.3l6.101-57.1H377L368.9,420.7z M415.4,413.3l-11.5,7.4H384.6l-8.6-7.4l6.3-40.7
	l12.4-9h22l8.8,9L415.4,413.3z M401.3,409.7l6.8-32.6h-10.6l-6.1,32.6H401.3z M458.2,420.7H443.6L440.2,399.6L434.1,420.7h-14.6
	l14.6-57.1H450.7l3.2,24.5l7.6-24.5H478L458.2,420.7z"/>
<g>
	<path fill="#FFFFFF" d="M194.9,510.4h-22.4V506.1H168v-4.5h-4.5V487.9h4.3v-4.5h4.5V479.1h22.6v4.301h-17.8v4.5h-4.6V501.3h4.4
		v4.601h8.9V497.1h-4.3v-4.5h13.4V510.4L194.9,510.4z"/>
	<path fill="#FFFFFF" d="M229.5,510.4h-9v-8.9h-13.4v8.9h-9V488h4.3v-4.5h4.6V479h13.5v4.3h4.5v4.5h4.5V510.4L229.5,510.4z
		 M220.5,496.9V487.8H216v-4.2h-4.6v4.5h-4.3v8.9h13.4V496.9z"/>
	<path fill="#FFFFFF" d="M264.2,510.4h-8.9V497h-4.5v4.4h-4.5V497H242v13.4h-9.1V479h8.9v4.3h4.6v4.601h4.3v-4.4h4.6V479h9v31.4
		H264.2z"/>
	<path fill="#FFFFFF" d="M299.4,510.2h-31.8v-31.7h31.8v4.4h-22.6v9h13.5v4.699h-13.5v9.101h22.6V510.2z"/>
	<path fill="#FFFFFF" d="M341.5,505.9h-4.3v4.5H314.6V506.1h-4.5v-22.6h4.301V479H337v4.3h4.5V505.9z M332.5,505.9V483.6h-13.4
		V505.9H332.5z"/>
	<path fill="#FFFFFF" d="M376.2,496.9h-4.3v4.5h-4.5v4.5h-4.5v4.5h-4.5V506.1H353.8v-4.5H349.4v-4.5h-4.5V479h8.899v13.2h4.601v4.7
		h4.3v-4.4h4.6V479h9v17.9H376.2z"/>
	<path fill="#FFFFFF" d="M411.4,510.2H379.6v-31.7H411.4v4.4H388.8v9h13.5v4.699h-13.5v9.101H411.4V510.2z"/>
	<path fill="#FFFFFF" d="M445.5,496.9h-9v4.3h4.5v4.6h4.5v4.5h-13.4v-4.2h-4.5v-4.6h-4.5v8.9h-9V479H441v4.3h4.5V496.9z
		 M436.5,492.4V483.6h-13.4V497h9v-4.5h4.4V492.4z"/>
</g>
</svg>
