<?xml version="1.0" encoding="utf-8"?>
<!-- Generator: Adobe Illustrator 17.1.0, SVG Export Plug-In . SVG Version: 6.00 Build 0)  -->
<!DOCTYPE svg PUBLIC "-//W3C//DTD SVG 1.1//EN" "http://www.w3.org/Graphics/SVG/1.1/DTD/svg11.dtd">
<svg version="1.1" id="Layer_1" xmlns="http://www.w3.org/2000/svg" xmlns:xlink="http://www.w3.org/1999/xlink" x="0px" y="0px"
	 viewBox="0 0 72 72" enable-background="new 0 0 72 72" xml:space="preserve">
<g>
	<path fill="#4C4D4D" d="M26.8,66.8c1.2,3,4.7,5.2,8,5.2h2.5c3.3,0,6.8-2.2,8-5.2c-2.8,0.3-6,0.5-9.2,0.5S29.6,67.1,26.8,66.8z"/>
	<path fill="#4C4D4D" d="M34.2,36.1c-1.1,1.8-2.1,3.3-1.8,5.1c0.2,1.4,1.3,2.4,2.5,2.8c-1.5-1.8,0.6-3.7,1.5-5.2
		c0.1,2.4,1.7,2.6,1.4,4.3c-0.1,0.4-0.2,0.7-0.5,0.9c0.4-0.1,0.8-0.4,1.1-0.6c3-3.2,0.6-6.4-2.4-10.7C35.6,34.3,35.3,34.3,34.2,36.1
		z"/>
	<path fill="#4C4D4D" d="M36,0C25.9,0,15.9,2.4,15.9,7.1v53.7c0,3.1,10.1,4.7,20.1,4.7s20.1-1.6,20.1-4.7V7.1C56.1,2.4,46.1,0,36,0z
		 M36,8.8c3.2,0,5.7,2.6,5.7,5.7c0,3.2-2.6,5.7-5.7,5.7c-3.2,0-5.7-2.6-5.7-5.7C30.3,11.4,32.8,8.8,36,8.8z M38.3,46
		c-0.7,0.3-1.4,0.4-2.2,0.4h0c-2.9,0-5.5-2.1-5.9-4.9c-0.4-2.6,0.9-4.6,2.1-6.6c2.4-3.8,2.3-5,2.4-8.5c1.4,4.2,3.1,4.5,5.5,8.7
		C42.9,39.7,42.9,44.3,38.3,46z"/>
	<path fill="#4C4D4D" d="M34,10.3l-0.3,0.2L36,16c0.1,0.3,0.5,0.4,0.9,0.2c0.3-0.2,0.5-0.5,0.3-0.8L34,10.3z"/>
</g>
</svg>
