<?xml version="1.0" encoding="utf-8"?>
<!-- Generator: Adobe Illustrator 17.1.0, SVG Export Plug-In . SVG Version: 6.00 Build 0)  -->
<!DOCTYPE svg PUBLIC "-//W3C//DTD SVG 1.1//EN" "http://www.w3.org/Graphics/SVG/1.1/DTD/svg11.dtd">
<svg version="1.1" id="Layer_1" xmlns="http://www.w3.org/2000/svg" xmlns:xlink="http://www.w3.org/1999/xlink" x="0px" y="0px"
	 viewBox="0 0 72 72" enable-background="new 0 0 72 72" xml:space="preserve">
<g>
	<path fill="#4C4D4D" d="M62.6,37.2c0.1,0.3,0.1,2.9-0.4,4.6c3.3,1.2,5.1,3.2,5.1,6c0,6.3-12.8,11.5-28.5,11.5
		c-5,0-9.6-0.5-13.7-1.4c4.9,1.8,11.1,2.9,17.9,2.9c15.8,0,29-6,29-13.3C72,43.2,69.9,38.9,62.6,37.2z"/>
	<path fill="#4C4D4D" d="M15.3,26.7c0,0-3.8-3.4-5.2-7.1c-1.2-3.2-0.3-6.7,3.5-8c4.4-1.6,6.5,1.4,6.9,5.1c0.3,3.2-0.9,7.2-0.9,7.2
		L15.3,26.7z"/>
	<g>
		<path fill="#4C4D4D" d="M61.5,35.2c-0.1-1.1-0.2-2.3-0.5-3.5c-0.1-0.5-0.2-1-0.3-1.5c-3.3-13-15.2-15.8-27.4-11.8
			c0.2,0.7,0.4,2.1,0.4,3.3C34,30.9,27,33.1,27,33.1s0.4-8.1,0.6-12.5c-0.2,0.1,0.2-0.1,0,0C12.3,27.5,0,43.4,0,43.4
			s16.7,8.7,32.7,11.3C48,57.1,62.7,51.7,61.5,35.2z"/>
		<path fill="#4C4D4D" d="M32.7,21.6c0-1.3-0.2-2.2-0.4-3c-1-3.8-3.5-1.8-3.5-1.8c0,0.6-0.1,1.8-0.2,3.2C28.4,24.5,28,31.4,28,31.4
			S32.9,29.8,32.7,21.6z"/>
	</g>
	<ellipse fill="#FFFFFF" cx="20.5" cy="34.2" rx="1.7" ry="1.6"/>
	<path fill="#FFFFFF" d="M7.7,42.1c0,0,7.6-4.7,17.2-0.1C25,42,16.1,38.3,7.7,42.1z"/>
	<path fill="#4C4D4D" d="M7.2,43c0,0,4.9-2,10.1,1.8C17.3,44.7,12.5,41.6,7.2,43z"/>
</g>
</svg>
