<?xml version="1.0" encoding="utf-8"?>
<!-- Generator: Adobe Illustrator 17.1.0, SVG Export Plug-In . SVG Version: 6.00 Build 0)  -->
<!DOCTYPE svg PUBLIC "-//W3C//DTD SVG 1.1//EN" "http://www.w3.org/Graphics/SVG/1.1/DTD/svg11.dtd">
<svg version="1.1" id="Layer_1" xmlns="http://www.w3.org/2000/svg" xmlns:xlink="http://www.w3.org/1999/xlink" x="0px" y="0px"
	 viewBox="0 0 72 72" enable-background="new 0 0 72 72" xml:space="preserve">
<g>
	<g>
		<path fill="#1E76BA" d="M57.1,62.7L57.1,62.7c0.1-0.2,0.2-0.4,0.2-0.7v-0.9c0-0.6-0.5-1-1-1h-13v-4.4c2.1-0.4,2.4-1,2.5-1.5
			c0.3-1.1-2.5-2.1-2.5-2.1s0,0,0,0.1v-2.8c2.1-0.4,2.4-0.9,2.5-1.5c0.3-1.1-2.5-2.1-2.5-2.1s0,0,0,0.1v-2.8
			c2.1-0.4,2.4-0.9,2.5-1.5c0.3-1.1-2.5-2.1-2.5-2.1s0,0,0,0.1v-2.8c2.1-0.4,2.4-0.9,2.5-1.5c0.3-1.1-2.5-2.1-2.5-2.1s0,0,0,0.1
			v-2.8c2.1-0.4,2.4-0.9,2.5-1.5c0.3-1.1-2.5-2.1-2.5-2.1s0,0,0,0.1v-2.8c2.1-0.4,2.4-0.9,2.5-1.5c0.3-1.1-2.5-2.1-2.5-2.1
			s0,0,0,0.1v-1.5c0,0,0-0.4-0.2-1.3c1.5-0.4,1.8-0.9,2-1.4c0.3-1.1-2.7-1.9-2.7-1.9s0,0,0,0.1c-0.2-0.9-0.5-1.8-0.8-2.9
			c1.2-0.4,1.8-0.9,1.9-1.2c0.2-0.9-2.5-1.4-2.7-1.5c-0.4-1.1-0.8-2.4-1.2-3.7c0.8-0.3,1.1-0.7,1.2-1c0.1-0.6-1.6-0.9-1.9-0.9
			c-0.1-0.2-0.1-0.3-0.2-0.5C37.9,0.6,37.2,0,36.5,0c-0.7,0-1.3,0.6-2.2,2.9C34.2,3.5,34,4,33.8,4.5c0,0,0,0-0.1,0
			c-1.4,0.1-3.2,1-0.6,2c-0.6,1.6-1,3.1-1.4,4.4C30,11.1,27,11.8,31,13.4l0,0c-0.4,1.5-0.7,2.8-0.9,3.7c-2.3,0.3-5.4,1.1-0.4,3.2
			l0-0.7l0,0v3.8c-2.3,0.3-5,1.1,0,3.2l0-0.6v3.7c-2.3,0.3-5,1.1,0,3.2l0-0.6V36c-2.3,0.3-5,1.1,0,3.2l0-0.6v3.7
			c-2.3,0.3-5,1.1,0,3.2l0-0.6v3.7c-2.3,0.3-5,1.1,0,3.2l0-0.6v3.7c-2.3,0.3-5,1.1,0,3.2l0-0.6v2.7h-14c-0.6,0-1,0.5-1,1V62
			c0,0.2,0.1,0.4,0.2,0.6h0c0,0,0,0,0,0c0,0,0.1,0.1,0.1,0.1C16,63.8,23.6,72,36.1,72l-0.2,0C49.2,72,57.1,62.7,57.1,62.7z"/>
		<path fill="#1E76BA" d="M57.1,62.7L57.1,62.7c0.1-0.2,0.2-0.4,0.2-0.7v-0.9c0-0.6-0.5-1-1-1h-13v-4.4c2.1-0.4,2.4-1,2.5-1.5
			c0.3-1.1-2.5-2.1-2.5-2.1s0,0,0,0.1v-2.8c2.1-0.4,2.4-0.9,2.5-1.5c0.3-1.1-2.5-2.1-2.5-2.1s0,0,0,0.1v-2.8
			c2.1-0.4,2.4-0.9,2.5-1.5c0.3-1.1-2.5-2.1-2.5-2.1s0,0,0,0.1v-2.8c2.1-0.4,2.4-0.9,2.5-1.5c0.3-1.1-2.5-2.1-2.5-2.1s0,0,0,0.1
			v-2.8c2.1-0.4,2.4-0.9,2.5-1.5c0.3-1.1-2.5-2.1-2.5-2.1s0,0,0,0.1v-2.8c2.1-0.4,2.4-0.9,2.5-1.5c0.3-1.1-2.5-2.1-2.5-2.1
			s0,0,0,0.1v-1.5c0,0,0-0.4-0.2-1.3c1.5-0.4,1.8-0.9,2-1.4c0.3-1.1-2.7-1.9-2.7-1.9s0,0,0,0.1c-0.2-0.9-0.5-1.8-0.8-2.9
			c1.2-0.4,1.8-0.9,1.9-1.2c0.2-0.9-2.5-1.4-2.7-1.5c-0.4-1.1-0.8-2.4-1.2-3.7c0.8-0.3,1.1-0.7,1.2-1c0.1-0.6-1.6-0.9-1.9-0.9
			c-0.1-0.2-0.1-0.3-0.2-0.5C37.9,0.6,37.2,0,36.5,0c-0.7,0-1.3,0.6-2.2,2.9C34.2,3.5,34,4,33.8,4.5c0,0,0,0-0.1,0
			c-1.4,0.1-3.2,1-0.6,2c-0.6,1.6-1,3.1-1.4,4.4C30,11.1,27,11.8,31,13.4l0,0c-0.4,1.5-0.7,2.8-0.9,3.7c-2.3,0.3-5.4,1.1-0.4,3.2
			l0-0.7l0,0v3.8c-2.3,0.3-5,1.1,0,3.2l0-0.6v3.7c-2.3,0.3-5,1.1,0,3.2l0-0.6V36c-2.3,0.3-5,1.1,0,3.2l0-0.6v3.7
			c-2.3,0.3-5,1.1,0,3.2l0-0.6v3.7c-2.3,0.3-5,1.1,0,3.2l0-0.6v3.7c-2.3,0.3-5,1.1,0,3.2l0-0.6v2.7h-14c-0.6,0-1,0.5-1,1V62
			c0,0.2,0.1,0.4,0.2,0.6h0c0,0,0,0,0,0c0,0,0.1,0.1,0.1,0.1C16,63.8,23.6,72,36.1,72l-0.2,0C49.2,72,57.1,62.7,57.1,62.7z"/>
		<g>
			<path fill="#1E76BA" d="M42.3,55.9c2.9-0.5,3.3-1,3.5-1.7c0.3-1.1-2.5-2.1-2.5-2.1s0.1,1.1-2.7,1.4c-2.9,0.3-6.1,0.7-10,1.1
				c-2.4,0.3-6.5,1-0.8,3.3l0-0.7C29.8,57.3,34.8,57.1,42.3,55.9z"/>
			<path fill="#1E76BA" d="M42.3,49.6c2.9-0.5,3.3-1,3.5-1.7c0.3-1.1-2.5-2.1-2.5-2.1s0.1,1.1-2.7,1.4c-2.9,0.3-6.1,0.7-10,1.1
				c-2.4,0.3-6.5,1-0.8,3.3l0-0.7C29.8,51,34.8,50.8,42.3,49.6z"/>
			<path fill="#1E76BA" d="M42.3,43.3c2.9-0.5,3.3-1,3.5-1.7c0.3-1.1-2.5-2.1-2.5-2.1s0.1,1.1-2.7,1.4c-2.9,0.3-6.1,0.7-10,1.1
				c-2.4,0.3-6.5,1-0.8,3.3l0-0.7C29.8,44.7,34.8,44.6,42.3,43.3z"/>
			<path fill="#1E76BA" d="M42.3,37.1c2.9-0.5,3.3-1,3.5-1.7c0.3-1.1-2.5-2.1-2.5-2.1s0.1,1.1-2.7,1.4c-2.9,0.3-6.1,0.7-10,1.1
				c-2.4,0.3-6.5,1-0.8,3.3l0-0.7C29.8,38.5,34.8,38.3,42.3,37.1z"/>
			<path fill="#1E76BA" d="M42.3,30.8c2.9-0.5,3.3-1,3.5-1.7c0.3-1.1-2.5-2.1-2.5-2.1s0.1,1.1-2.7,1.4c-2.9,0.3-6.1,0.7-10,1.1
				c-2.4,0.3-6.5,1-0.8,3.3l0-0.7C29.8,32.2,34.8,32,42.3,30.8z"/>
			<path fill="#1E76BA" d="M42.3,24.5c2.9-0.5,3.3-1,3.5-1.7c0.3-1.1-2.5-2.1-2.5-2.1s0.1,1.1-2.7,1.4c-2.9,0.3-6.1,0.7-10,1.1
				c-2.4,0.3-6.5,1-0.8,3.3l0-0.7C29.8,25.9,34.8,25.7,42.3,24.5z"/>
			<path fill="#1E76BA" d="M41.6,18.3c2.8-0.4,3.3-1.1,3.5-1.8c0.3-1.1-2.7-1.9-2.7-1.9s0.2,1.1-2.4,1.3c-2.8,0.3-5.8,0.7-9.4,1.1
				c-2.2,0.3-6.1,1.1-0.8,3.3l0-0.7C29.8,19.6,34.5,19.5,41.6,18.3z"/>
			<path fill="#1E76BA" d="M40.2,12.1c2.1-0.3,3.3-1.1,3.3-1.6c0.2-1-2.7-1.5-2.7-1.5s0.1,0.8-1.8,1c-2.1,0.2-4.4,0.5-7.2,0.8
				c-1.7,0.2-4.8,0.9-0.8,2.5l0.2-0.5C31.1,12.9,34.8,13,40.2,12.1z"/>
			<path fill="#1E76BA" d="M38.2,5.8c1.7-0.3,2.5-1,2.6-1.4c0.1-0.6-1.9-0.9-1.9-0.9s-0.1,0.5-1.3,0.6c-1.6,0.2-2.2,0.3-3.9,0.4
				c-1.4,0.1-3.2,1-0.6,2l0.1-0.3C33.2,6.2,34.8,6.3,38.2,5.8z"/>
		</g>
		<line fill="#1E76BA" x1="44.6" y1="58.9" x2="27.1" y2="58.9"/>
		<path fill="#1E76BA" d="M58.3,62c0,0.6-0.5,1-1,1H14.7c-0.6,0-1-0.5-1-1"/>
	</g>
</g>
</svg>
