<?xml version="1.0" encoding="utf-8"?>
<!-- Generator: Adobe Illustrator 17.1.0, SVG Export Plug-In . SVG Version: 6.00 Build 0)  -->
<!DOCTYPE svg PUBLIC "-//W3C//DTD SVG 1.1//EN" "http://www.w3.org/Graphics/SVG/1.1/DTD/svg11.dtd">
<svg version="1.1" id="Layer_1" xmlns="http://www.w3.org/2000/svg" xmlns:xlink="http://www.w3.org/1999/xlink" x="0px" y="0px"
	 viewBox="0 0 72 72" enable-background="new 0 0 72 72" xml:space="preserve">
<g>
	<path fill="#1E76BA" d="M45.5,19H26.5c-1.5,0-2.7,1.2-2.7,2.7v36.5c0,1.5,1.2,2.7,2.7,2.7h18.9c1.5,0,2.7-1.2,2.7-2.7V21.7
		C48.2,20.2,47,19,45.5,19z M32.2,21.5h7.5c0.3,0,0.6,0.3,0.6,0.6c0,0.3-0.3,0.6-0.6,0.6h-7.5c-0.3,0-0.6-0.3-0.6-0.6
		C31.6,21.7,31.9,21.5,32.2,21.5z M36,59.2c-1.1,0-2-0.9-2-2c0-1.1,0.9-2,2-2c1.1,0,2,0.9,2,2C38,58.4,37.1,59.2,36,59.2z
		 M45.3,53.3H26.7V24.9h18.6V53.3z"/>
	<polygon fill="#1E76BA" points="0,53.5 24.2,53.5 24.2,35.3 0,45.5 	"/>
	<polygon fill="#1E76BA" points="72,53.5 47.8,53.5 47.8,35.3 72,45.5 	"/>
	<polygon fill="#1E76BA" points="45.7,67 26.3,67 28.3,60.5 43.7,60.5 	"/>
	<g>
		<polygon fill="#1E76BA" points="28.3,20.4 36,5 43.7,20.4 		"/>
	</g>
</g>
</svg>
