<?xml version="1.0" encoding="utf-8"?>
<!-- Generator: Adobe Illustrator 16.0.3, SVG Export Plug-In . SVG Version: 6.00 Build 0)  -->
<!DOCTYPE svg PUBLIC "-//W3C//DTD SVG 1.1//EN" "http://www.w3.org/Graphics/SVG/1.1/DTD/svg11.dtd">
<svg version="1.1" id="Layer_1" xmlns="http://www.w3.org/2000/svg" xmlns:xlink="http://www.w3.org/1999/xlink" x="0px" y="0px"
	 width="612px" height="303px" viewBox="0 246.5 612 303" enable-background="new 0 246.5 612 303" xml:space="preserve">
<path fill="#8A8200" stroke="#000000" stroke-width="1.3538" stroke-miterlimit="10" d="M108.1,268.7l13.1,76.1h-17.5l-14.4-22.9
	l5.6,23H77.5l-52.7-76.1h18.9l30.4,45l-12.8-45h10.1l25.9,45l-8.3-45L108.1,268.7L108.1,268.7z M177.4,335.5l-8.3,9.5h-21.8
	l-14.4-9.5l-19.3-54.2l8.3-12.4h25.2l15.8,12.4L177.4,335.5z M159.2,330.5l-13-43.4h-12.1l13.9,43.4H159.2z M230.1,345.2h-16.4
	l-5.2-27.2H197l5.9,27.2h-16.4l-19.3-76.3H205l14.6,12.4l3.4,20.9l-7,7.6l9.5,7.6L230.1,345.2z M205.1,301.5l-2.7-14.4h-12.1
	l3.1,14.4H205.1z M280.2,345.2h-16.4l-14-27.9l3.2,27.9h-16.4l-11.3-76.1h18.9l3.8,33.3l8.8-33.3h18.9L263.5,310L280.2,345.2z
	 M359.6,335.5L347.7,345h-21.8l-10.801-9.5l0.7-54.2l12.8-12.4h25.2l11.3,12.4L359.6,335.5z M343.2,330.5l3.1-43.4h-12.1l-2.2,43.4
	H343.2z M408.7,345.2h-16.4L397,318h-11.3l-4.101,27.2H365.2l8.8-76.1h37.8l10.101,12.4l-4.301,20.9L407.9,310l6.699,7.6
	L408.7,345.2z M399.7,301.5l2.5-14.4H390.1l-2.1,14.4H399.7z M461.6,335.5L447.7,345H415l16.9-76.1h37.8l8.8,12.4L461.6,335.5z
	 M446.3,330.5l11.9-43.4H446.1l-11,43.4H446.3z M503.2,345.2H465l24.7-76.1h44.1l-7.399,18.4H502.1l-5.199,14.4h23.6l-6.5,16.2h-23
	l-4.5,12.8h22.3L503.2,345.2z M553.4,345.2H537l13-27.2h-11.3l-12.2,27.2H510l31.7-76.1h37.8l6.5,12.4l-10.6,20.9L563.3,310l4.5,7.6
	L553.4,345.2z M557.6,301.5l6.801-14.4H552.3l-6.5,14.4H557.6z M182.4,413.1h-14L149.9,358h16L182.4,413.1z M225.6,413.1h-14
	l-14.4-20.5l5.2,20.5h-14l-16-55.1h16l16.2,23.8L199,358h15.8L225.6,413.1z M264.3,358l-7,55.1h-18.7l-23-55.1h15.8l14,38.2
	l2.9-38.2H264.3z M309,413.1h-14l-1.8-7h-11.9l-1.1,7h-14l8.1-55.1h21.2L309,413.1z M290.1,394.9l-4.5-17.1l-2.7,17.1H290.1z
	 M348,405.9l-10.1,7h-18.7l-9.4-7v-7.4H324.4l-0.2,3.8h9.5l0.5-9.4h-14.8l-9.7-7.7v-18.5l10.6-8.8h21.2l9.7,8.8l-0.9,8.5H335
	l0.4-4.1H325.1l-0.399,10.3h15.1l9.4,7.9L348,405.9z M366.9,413.1h-14l5.8-55.1h16L366.9,413.1z M411.8,405.9l-11.2,7H381.9l-8.5-7
	l5.899-39.4l11.9-8.8h21.2l8.5,8.8L411.8,405.9z M398.3,402.3l6.5-31.5h-10.3l-5.8,31.5H398.3z M453,413.1h-14l-3.4-20.5
	l-5.899,20.5h-14l14.2-55.1h16l3.1,23.8l7.4-23.8h16L453,413.1z"/>
<linearGradient id="SVGID_1_" gradientUnits="userSpaceOnUse" x1="297.8608" y1="-310.6089" x2="297.8608" y2="-417.9497" gradientTransform="matrix(1.3909 0 0 1.3909 -108.9954 852.7259)">
	<stop  offset="0" style="stop-color:#FFFFFF"/>
	<stop  offset="1" style="stop-color:#FDDF46"/>
</linearGradient>
<path fill="url(#SVGID_1_)" stroke="#000000" stroke-width="1.4002" stroke-miterlimit="10" d="M101.3,271.6l13.5,78.8h-18L82,326.7
	l5.8,23.8h-18l-54.5-78.8h19.4l31.5,46.4L53,271.6h10.4L90.2,318l-8.6-46.4H101.3L101.3,271.6z M173.1,340.4l-8.6,9.9H142l-14.8-9.9
	l-20-56.2l8.5-12.8h26.1l16.4,12.8L173.1,340.4z M154.2,335.5l-13.3-45h-12.6l14.4,45H154.2z M227.4,350.5h-16.9l-5.6-28.3H193
	l6.1,28.3h-16.9l-19.8-78.8h39.1l15.1,12.8l3.4,21.6l-7.2,7.9l9.7,7.7L227.4,350.5z M201.7,305.5l-2.9-14.9h-12.6l3.2,14.9H201.7z
	 M279.3,350.5h-16.9L248,321.7l3.4,28.8h-16.9l-11.7-78.8h19.6l4,34.4l9-34.4H275L262.4,314L279.3,350.5z M361.4,340.4l-12.2,9.9
	h-22.5l-11.2-9.9l0.7-56.2l13.1-12.8H355.4l11.699,12.8L361.4,340.4z M344.4,335.5l3.1-45h-12.6l-2.2,45H344.4z M412.1,350.5H395.2
	l4.899-28.3H388.2l-4.3,28.3H367l9.2-78.8h39.1l10.4,12.8l-4.5,21.6L411.1,314l7,7.7L412.1,350.5z M402.9,305.5l2.5-14.9H392.8
	l-2.2,14.9H402.9z M467,340.4l-14.4,9.9h-33.8l17.5-78.8H475.4l9,12.8L467,340.4z M451.2,335.5l12.399-45H451l-11.3,45H451.2z
	 M510,350.5h-39.4l25.4-78.8h45.5l-7.5,18.8h-25.2l-5.2,14.9H528l-6.8,16.9h-23.8l-4.7,13.1H516L510,350.5z M561.9,350.5H545
	l13.3-28.3H546.4L533.8,350.5H516.9l32.8-78.8h39.1l6.5,12.8l-11,21.6l-12.6,7.9l4.5,7.7L561.9,350.5z M566.2,305.5l7-14.9H560.6
	l-6.6,14.9H566.2z M178.3,420.7h-14.6l-19.3-57.1H161L178.3,420.7z M222.8,420.7h-14.6L193.3,399.6l5.4,21.101h-14.6l-16.4-57.1
	h16.6l16.7,24.5l-5.8-24.5h16.6L222.8,420.7z M263.1,363.6l-7.2,57.1h-19.3l-23.8-57.1h16.4l14.4,39.6l3.1-39.6H263.1z M309,420.7
	h-14.4l-2-7.4h-12.4l-1.1,7.4h-14.4l8.3-57.1h22L309,420.7z M289.5,401.9L285,384.3l-2.9,17.601H289.5z M349.3,413.3l-10.399,7.4
	H319.6l-9.699-7.4V405.9H324.8l-0.2,4h9.9l0.5-9.5h-15l-10.1-8.101V373l11-9h22l10.1,9l-0.9,8.8h-15.8l0.4-4.3H326.1l-0.399,10.8
	h15.7l9.699,8.3L349.3,413.3z M368.9,420.7H354.3l6.101-57.1H377L368.9,420.7z M415.4,413.3l-11.5,7.4H384.6l-8.6-7.4l6.3-40.7
	l12.4-9h22l8.8,9L415.4,413.3z M401.3,409.7l6.8-32.6h-10.6l-6.1,32.6H401.3z M458.2,420.7H443.6L440.2,399.6L434.1,420.7h-14.6
	l14.6-57.1H450.7l3.2,24.5l7.6-24.5H478L458.2,420.7z"/>
<g>
	<g>
		<linearGradient id="SVGID_2_" gradientUnits="userSpaceOnUse" x1="218.7827" y1="459.5537" x2="218.7827" y2="536.8488">
			<stop  offset="0.3552" style="stop-color:#FFB229"/>
			<stop  offset="1" style="stop-color:#DB5512"/>
		</linearGradient>
		<path fill="url(#SVGID_2_)" d="M221.253,508.777c0,9.264-2.899,17.852-7.841,24.905c0.547,0.107,1.087,0.218,1.621,0.33
			c5.833-7.775,9.303-17.426,9.303-27.896c0-11.513-4.188-22.038-11.106-30.166v7.67
			C218.275,490.722,221.253,499.398,221.253,508.777z"/>
		<linearGradient id="SVGID_3_" gradientUnits="userSpaceOnUse" x1="136.8677" y1="459.5547" x2="136.8677" y2="536.8503">
			<stop  offset="0.3552" style="stop-color:#FFB229"/>
			<stop  offset="1" style="stop-color:#DB5512"/>
		</linearGradient>
		<path fill="url(#SVGID_3_)" d="M134.293,508.777c0-9.505,3.059-18.289,8.231-25.449v-7.615
			c-7.045,8.156-11.311,18.776-11.314,30.403c0.003,10.471,3.47,20.121,9.302,27.896c0.534-0.112,1.075-0.223,1.621-0.33
			C137.193,526.629,134.293,518.041,134.293,508.777z"/>
		<path fill="#FFFFFF" d="M145.001,508.194l10.131-9.952h-3.14v-7.018h7.016v3.211l2.852-2.801v-0.41h0.417l3.143-3.082h-3.56
			v-7.018h7.015v3.618l6.991-6.864v-43.804l-30.864,26.645V508.194z M161.859,460.924h7.015v7.017h-7.015V460.924z M161.859,471.024
			h7.015v7.015h-7.015V471.024z M151.992,460.924h7.016v7.017h-7.016V460.924z M151.992,471.024h7.016v7.015h-7.016V471.024z
			 M151.992,481.125h7.016v7.018h-7.016V481.125z"/>
		<path fill="#FFFFFF" d="M179.886,445.297v32.236l6.994,6.937v-1.473h7.015v7.014h-1.433l4.284,4.247v-1.164h7.016v7.021h-1.12
			l8.108,8.042v-36.217L179.886,445.297z M193.895,479.91h-7.015v-7.014h7.015V479.91z M203.762,490.011h-7.016v-7.014h7.016
			V490.011z M203.762,479.91h-7.016v-7.014h7.016V479.91z"/>
		<path fill="#FFFFFF" d="M151.215,532.666v-21.18h-6.214v22.148c0.363-0.063,0.715-0.134,1.078-0.194
			C147.748,533.156,149.472,532.907,151.215,532.666z"/>
		<path fill="#FFFFFF" d="M210.75,533.672v-22.186h-6.169v21.22c1.657,0.226,3.299,0.466,4.887,0.734
			C209.903,533.513,210.32,533.598,210.75,533.672z"/>
		<linearGradient id="SVGID_4_" gradientUnits="userSpaceOnUse" x1="177.7729" y1="478.876" x2="177.7729" y2="539.4961">
			<stop  offset="0.3552" style="stop-color:#00ADEE"/>
			<stop  offset="1" style="stop-color:#12306D"/>
		</linearGradient>
		<path fill="url(#SVGID_4_)" d="M212.74,536.074c-1.181-0.23-2.384-0.445-3.605-0.65c-2.228-0.379-4.529-0.715-6.893-1.009V509.17
			h6.22l-30.531-30.294l-30.844,30.294h6.221v25.245c-2.363,0.294-4.668,0.63-6.893,1.009c-1.225,0.205-2.432,0.42-3.605,0.65
			c-4.902,0.958-9.393,2.106-13.362,3.422c4.776-0.584,19.546-2.254,48.327-2.693c28.778-0.438,43.547,2.109,48.322,2.693
			C222.13,538.181,217.639,537.032,212.74,536.074z M176.349,514.96h-7.018v-7.016h7.018V514.96z M176.349,505.092h-7.018v-7.014
			h7.018V505.092z M186.216,514.96h-7.015v-7.016h7.015V514.96z M186.216,505.092h-7.015v-7.014h7.015V505.092z"/>
	</g>
	<g>
		<g>
			<path fill="#FFFFFF" d="M234.038,460.524c-0.363-0.875-0.637-1.054-1.21-1.214c-0.24-0.063-0.495-0.063-0.621-0.063
				c-0.145,0-0.192-0.047-0.192-0.144c0-0.125,0.174-0.144,0.414-0.144c0.847,0,1.759,0.049,2.314,0.049
				c0.399,0,1.165-0.049,1.963-0.049c0.189,0,0.367,0.034,0.367,0.144c0,0.114-0.097,0.144-0.24,0.144
				c-0.253,0-0.492,0.017-0.622,0.112c-0.111,0.08-0.159,0.19-0.159,0.336c0,0.207,0.142,0.652,0.367,1.229l2.746,7.247h0.063
				c0.687-1.758,2.761-6.897,3.142-7.949c0.082-0.206,0.145-0.449,0.145-0.589c0-0.13-0.063-0.259-0.208-0.308
				c-0.193-0.062-0.428-0.078-0.638-0.078c-0.145,0-0.273-0.015-0.273-0.128c0-0.125,0.146-0.159,0.45-0.159
				c0.797,0,1.467,0.049,1.679,0.049c0.267,0,1.017-0.049,1.494-0.049c0.209,0,0.336,0.034,0.336,0.144
				c0,0.114-0.096,0.144-0.255,0.144s-0.493,0-0.78,0.192c-0.207,0.145-0.447,0.414-0.881,1.435
				c-0.62,1.502-1.053,2.363-1.914,4.326c-1.021,2.331-1.771,4.07-2.122,4.865c-0.414,0.929-0.511,1.184-0.732,1.184
				c-0.208,0-0.304-0.222-0.609-0.973L234.038,460.524z"/>
			<path fill="#FFFFFF" d="M250.95,463.59c0-2.425,0-2.876-0.029-3.384c-0.034-0.543-0.193-0.812-0.545-0.896
				c-0.177-0.046-0.381-0.063-0.575-0.063c-0.156,0-0.252-0.029-0.252-0.158c0-0.095,0.125-0.129,0.384-0.129
				c0.604,0,1.609,0.049,2.07,0.049c0.4,0,1.343-0.049,1.948-0.049c0.208,0,0.337,0.034,0.337,0.129
				c0,0.129-0.097,0.158-0.256,0.158c-0.161,0-0.288,0.017-0.478,0.049c-0.434,0.078-0.561,0.353-0.594,0.909
				c-0.029,0.508-0.029,0.959-0.029,3.384v2.809c0,1.549,0,2.807,0.063,3.495c0.048,0.432,0.159,0.717,0.64,0.782
				c0.222,0.029,0.574,0.063,0.814,0.063c0.173,0,0.251,0.049,0.251,0.128c0,0.111-0.125,0.161-0.3,0.161
				c-1.054,0-2.061-0.05-2.492-0.05c-0.365,0-1.371,0.05-2.011,0.05c-0.207,0-0.318-0.05-0.318-0.161
				c0-0.079,0.066-0.128,0.256-0.128c0.24,0,0.43-0.034,0.576-0.063c0.317-0.065,0.413-0.335,0.462-0.798
				c0.078-0.673,0.078-1.931,0.078-3.479V463.59z"/>
			<path fill="#FFFFFF" d="M260.667,463.59c0-2.425,0-2.876-0.034-3.384c-0.029-0.543-0.158-0.798-0.684-0.909
				c-0.129-0.032-0.398-0.049-0.625-0.049c-0.173,0-0.272-0.029-0.272-0.144c0-0.109,0.114-0.144,0.354-0.144
				c0.847,0,1.85,0.049,2.188,0.049c0.54,0,1.752-0.049,2.248-0.049c1.005,0,2.074,0.097,2.935,0.688
				c0.448,0.301,1.085,1.115,1.085,2.183c0,1.185-0.492,2.269-2.107,3.576c1.423,1.785,2.524,3.209,3.464,4.197
				c0.895,0.924,1.549,1.038,1.789,1.085c0.174,0.034,0.319,0.049,0.447,0.049c0.129,0,0.193,0.049,0.193,0.128
				c0,0.128-0.115,0.161-0.305,0.161h-1.515c-0.896,0-1.295-0.083-1.709-0.304c-0.688-0.369-1.294-1.119-2.188-2.348
				c-0.64-0.879-1.372-1.963-1.578-2.203c-0.078-0.095-0.177-0.109-0.289-0.109l-1.387-0.034c-0.08,0-0.129,0.034-0.129,0.129v0.222
				c0,1.487,0,2.746,0.081,3.418c0.048,0.461,0.145,0.812,0.622,0.877c0.236,0.029,0.591,0.063,0.783,0.063
				c0.129,0,0.192,0.049,0.192,0.128c0,0.111-0.114,0.161-0.321,0.161c-0.925,0-2.104-0.05-2.348-0.05
				c-0.303,0-1.306,0.05-1.945,0.05c-0.207,0-0.318-0.05-0.318-0.161c0-0.079,0.065-0.128,0.256-0.128
				c0.239,0,0.429-0.034,0.573-0.063c0.317-0.065,0.399-0.416,0.462-0.877c0.081-0.672,0.081-1.931,0.081-3.4V463.59z
				 M262.549,464.85c0,0.175,0.033,0.24,0.145,0.289c0.333,0.11,0.813,0.16,1.213,0.16c0.639,0,0.847-0.064,1.134-0.274
				c0.481-0.349,0.939-1.084,0.939-2.393c0-2.267-1.5-2.921-2.44-2.921c-0.402,0-0.684,0.015-0.846,0.063
				c-0.111,0.033-0.145,0.096-0.145,0.225V464.85z"/>
			<path fill="#FFFFFF" d="M277.426,459.854l-2.375,0.065c-0.927,0.03-1.312,0.109-1.552,0.464c-0.159,0.235-0.237,0.43-0.27,0.557
				c-0.032,0.128-0.081,0.19-0.177,0.19c-0.107,0-0.141-0.079-0.141-0.256c0-0.256,0.299-1.708,0.336-1.834
				c0.045-0.206,0.092-0.302,0.189-0.302c0.128,0,0.287,0.157,0.687,0.191c0.465,0.049,1.068,0.079,1.594,0.079h6.322
				c0.51,0,0.861-0.049,1.102-0.079c0.24-0.049,0.366-0.081,0.43-0.081c0.11,0,0.128,0.096,0.128,0.335
				c0,0.336-0.047,1.435-0.047,1.854c-0.017,0.155-0.052,0.254-0.145,0.254c-0.126,0-0.159-0.08-0.177-0.32l-0.013-0.174
				c-0.032-0.414-0.466-0.863-1.885-0.895l-2.012-0.049v6.544c0,1.47,0,2.729,0.082,3.416c0.047,0.445,0.144,0.796,0.621,0.861
				c0.222,0.029,0.572,0.063,0.813,0.063c0.175,0,0.255,0.049,0.255,0.128c0,0.111-0.128,0.161-0.302,0.161
				c-1.051,0-2.06-0.05-2.508-0.05c-0.366,0-1.372,0.05-2.008,0.05c-0.211,0-0.32-0.05-0.32-0.161c0-0.079,0.063-0.128,0.255-0.128
				c0.239,0,0.432-0.034,0.573-0.063c0.32-0.065,0.418-0.416,0.465-0.877c0.078-0.672,0.078-1.931,0.078-3.4V459.854z"/>
			<path fill="#FFFFFF" d="M289.145,463.59c0-2.425,0-2.876-0.032-3.384c-0.029-0.543-0.16-0.798-0.685-0.909
				c-0.129-0.032-0.399-0.049-0.621-0.049c-0.178,0-0.272-0.029-0.272-0.144c0-0.109,0.109-0.144,0.35-0.144
				c0.847,0,1.853,0.049,2.33,0.049c0.384,0,1.39-0.049,1.962-0.049c0.244,0,0.353,0.034,0.353,0.144
				c0,0.114-0.097,0.144-0.256,0.144c-0.178,0-0.273,0.017-0.465,0.049c-0.427,0.078-0.556,0.353-0.588,0.909
				c-0.03,0.508-0.03,0.959-0.03,3.384v2.235c0,2.312,0.462,3.285,1.242,3.925c0.718,0.591,1.453,0.653,1.995,0.653
				c0.705,0,1.565-0.223,2.202-0.862c0.879-0.879,0.931-2.313,0.931-3.957v-1.994c0-2.425,0-2.876-0.036-3.384
				c-0.031-0.543-0.159-0.798-0.686-0.909c-0.128-0.032-0.397-0.049-0.574-0.049c-0.179,0-0.271-0.029-0.271-0.144
				c0-0.109,0.111-0.144,0.336-0.144c0.811,0,1.819,0.049,1.834,0.049c0.192,0,1.198-0.049,1.819-0.049
				c0.222,0,0.336,0.034,0.336,0.144c0,0.114-0.096,0.144-0.288,0.144c-0.177,0-0.272,0.017-0.465,0.049
				c-0.43,0.078-0.559,0.353-0.588,0.909c-0.033,0.508-0.033,0.959-0.033,3.384v1.709c0,1.77-0.175,3.651-1.516,4.802
				c-1.132,0.973-2.282,1.149-3.318,1.149c-0.846,0-2.38-0.047-3.544-1.102c-0.814-0.736-1.421-1.914-1.421-4.226V463.59z"/>
			<path fill="#FFFFFF" d="M306.363,466.861c-0.081,0-0.114,0.031-0.144,0.129l-0.862,2.281c-0.159,0.396-0.24,0.779-0.24,0.974
				c0,0.284,0.144,0.494,0.637,0.494h0.243c0.189,0,0.237,0.03,0.237,0.128c0,0.128-0.093,0.161-0.271,0.161
				c-0.509,0-1.197-0.05-1.689-0.05c-0.178,0-1.055,0.05-1.885,0.05c-0.208,0-0.304-0.033-0.304-0.161
				c0-0.098,0.063-0.128,0.189-0.128c0.146,0,0.368-0.015,0.498-0.034c0.732-0.095,1.035-0.639,1.356-1.434l4.005-10.023
				c0.191-0.463,0.285-0.639,0.447-0.639c0.144,0,0.237,0.146,0.398,0.511c0.382,0.878,2.937,7.39,3.96,9.815
				c0.604,1.438,1.065,1.657,1.402,1.74c0.24,0.049,0.477,0.063,0.666,0.063c0.131,0,0.214,0.015,0.214,0.128
				c0,0.128-0.148,0.161-0.739,0.161c-0.574,0-1.735,0-3.015-0.033c-0.285-0.017-0.48-0.017-0.48-0.128
				c0-0.098,0.066-0.128,0.227-0.143c0.11-0.034,0.222-0.177,0.145-0.369l-1.276-3.383c-0.037-0.08-0.082-0.111-0.163-0.111H306.363
				z M309.616,466.064c0.082,0,0.098-0.049,0.082-0.097l-1.438-3.94c-0.016-0.068-0.03-0.144-0.081-0.144
				c-0.045,0-0.078,0.075-0.094,0.144l-1.467,3.925c-0.019,0.063,0,0.112,0.065,0.112H309.616z"/>
			<path fill="#FFFFFF" d="M322.087,466.398c0,2.042,0,3.143,0.333,3.428c0.272,0.24,0.687,0.354,1.931,0.354
				c0.847,0,1.472-0.016,1.867-0.449c0.191-0.206,0.384-0.65,0.416-0.955c0.016-0.144,0.045-0.24,0.179-0.24
				c0.106,0,0.125,0.081,0.125,0.271c0,0.175-0.114,1.373-0.24,1.836c-0.096,0.352-0.175,0.43-1.005,0.43
				c-1.149,0-1.979-0.029-2.697-0.045c-0.719-0.033-1.293-0.05-1.947-0.05c-0.177,0-0.527,0-0.905,0.017
				c-0.374,0-0.783,0.033-1.106,0.033c-0.206,0-0.317-0.05-0.317-0.161c0-0.079,0.063-0.128,0.256-0.128
				c0.24,0,0.429-0.034,0.573-0.063c0.321-0.065,0.399-0.416,0.462-0.877c0.081-0.672,0.081-1.931,0.081-3.4v-2.809
				c0-2.425,0-2.876-0.031-3.384c-0.032-0.543-0.161-0.798-0.687-0.909c-0.13-0.032-0.318-0.049-0.528-0.049
				c-0.174,0-0.267-0.029-0.267-0.144c0-0.109,0.111-0.144,0.348-0.144c0.75,0,1.756,0.049,2.186,0.049
				c0.385,0,1.549-0.049,2.17-0.049c0.226,0,0.338,0.034,0.338,0.144c0,0.114-0.098,0.144-0.289,0.144
				c-0.179,0-0.43,0.017-0.622,0.049c-0.432,0.078-0.558,0.353-0.591,0.909c-0.03,0.508-0.03,0.959-0.03,3.384V466.398z"/>
		</g>
		<g>
			<linearGradient id="SVGID_5_" gradientUnits="userSpaceOnUse" x1="247.252" y1="477.3662" x2="247.252" y2="500.3164">
				<stop  offset="0" style="stop-color:#00ADEE"/>
				<stop  offset="0.3387" style="stop-color:#0877B7"/>
				<stop  offset="0.6297" style="stop-color:#0D518F"/>
				<stop  offset="0.8596" style="stop-color:#113976"/>
				<stop  offset="1" style="stop-color:#12306D"/>
			</linearGradient>
			<path fill="url(#SVGID_5_)" d="M237.499,478.133c0.093-0.501,0.267-0.767,0.504-0.767s0.414,0.148,0.796,0.914l8.053,16.639
				l8.024-16.843c0.237-0.474,0.385-0.71,0.652-0.71c0.264,0,0.44,0.296,0.53,0.914l2.684,18.231
				c0.265,1.858,0.559,2.716,1.447,2.982c0.855,0.264,1.444,0.294,1.825,0.294c0.267,0,0.475,0.028,0.475,0.206
				c0,0.234-0.354,0.322-0.77,0.322c-0.737,0-4.809-0.088-5.987-0.176c-0.679-0.059-0.856-0.146-0.856-0.324
				c0-0.147,0.117-0.237,0.325-0.322c0.18-0.062,0.264-0.447,0.146-1.271l-1.771-12.978h-0.114l-6.434,13.391
				c-0.678,1.385-0.824,1.653-1.092,1.653c-0.265,0-0.563-0.592-1.03-1.476c-0.708-1.36-3.04-5.869-3.392-6.697
				c-0.268-0.62-2.035-4.335-3.068-6.547h-0.12l-1.534,11.741c-0.06,0.529-0.087,0.912-0.087,1.385c0,0.56,0.382,0.827,0.886,0.946
				c0.532,0.116,0.942,0.146,1.237,0.146c0.237,0,0.44,0.06,0.44,0.206c0,0.265-0.264,0.322-0.705,0.322
				c-1.239,0-2.566-0.088-3.101-0.088c-0.559,0-1.976,0.088-2.918,0.088c-0.297,0-0.531-0.058-0.531-0.322
				c0-0.146,0.177-0.206,0.474-0.206c0.234,0,0.441,0,0.883-0.091c0.826-0.175,1.06-1.327,1.21-2.331L237.499,478.133z"/>
			<linearGradient id="SVGID_6_" gradientUnits="userSpaceOnUse" x1="273.5781" y1="477.3662" x2="273.5781" y2="500.3164">
				<stop  offset="0" style="stop-color:#00ADEE"/>
				<stop  offset="0.3387" style="stop-color:#0877B7"/>
				<stop  offset="0.6297" style="stop-color:#0D518F"/>
				<stop  offset="0.8596" style="stop-color:#113976"/>
				<stop  offset="1" style="stop-color:#12306D"/>
			</linearGradient>
			<path fill="url(#SVGID_6_)" d="M269.345,492.619c-0.149,0-0.206,0.057-0.268,0.233l-1.593,4.221
				c-0.295,0.735-0.442,1.445-0.442,1.796c0,0.533,0.265,0.919,1.184,0.919h0.441c0.354,0,0.441,0.06,0.441,0.232
				c0,0.238-0.178,0.296-0.502,0.296c-0.942,0-2.213-0.088-3.125-0.088c-0.327,0-1.95,0.088-3.481,0.088
				c-0.385,0-0.562-0.058-0.562-0.296c0-0.173,0.116-0.232,0.354-0.232c0.264,0,0.678-0.03,0.914-0.06
				c1.357-0.18,1.919-1.181,2.508-2.655l7.405-18.526c0.354-0.855,0.528-1.181,0.822-1.181c0.268,0,0.444,0.266,0.738,0.943
				c0.709,1.625,5.431,13.659,7.318,18.143c1.119,2.655,1.977,3.07,2.593,3.217c0.446,0.089,0.887,0.119,1.244,0.119
				c0.233,0,0.382,0.028,0.382,0.232c0,0.238-0.269,0.296-1.358,0.296c-1.063,0-3.215,0-5.573-0.058
				c-0.531-0.03-0.886-0.03-0.886-0.238c0-0.173,0.116-0.232,0.414-0.263c0.205-0.061,0.412-0.325,0.261-0.681l-2.358-6.253
				c-0.058-0.148-0.148-0.205-0.295-0.205H269.345z M275.36,491.142c0.146,0,0.18-0.086,0.146-0.176l-2.652-7.287
				c-0.03-0.119-0.058-0.266-0.147-0.266c-0.087,0-0.146,0.146-0.178,0.266l-2.713,7.257c-0.03,0.12,0,0.206,0.117,0.206H275.36z"/>
			<linearGradient id="SVGID_7_" gradientUnits="userSpaceOnUse" x1="290.2886" y1="478.0166" x2="290.2886" y2="500.3164">
				<stop  offset="0" style="stop-color:#00ADEE"/>
				<stop  offset="0.3387" style="stop-color:#0877B7"/>
				<stop  offset="0.6297" style="stop-color:#0D518F"/>
				<stop  offset="0.8596" style="stop-color:#113976"/>
				<stop  offset="1" style="stop-color:#12306D"/>
			</linearGradient>
			<path fill="url(#SVGID_7_)" d="M288.121,486.57c0-4.484,0-5.308-0.061-6.255c-0.057-0.999-0.354-1.503-1.001-1.651
				c-0.327-0.09-0.706-0.117-1.063-0.117c-0.294,0-0.472-0.059-0.472-0.296c0-0.175,0.237-0.234,0.709-0.234
				c1.119,0,2.98,0.088,3.834,0.088c0.737,0,2.479-0.088,3.601-0.088c0.382,0,0.619,0.06,0.619,0.234
				c0,0.237-0.178,0.296-0.472,0.296s-0.534,0.027-0.885,0.087c-0.799,0.147-1.033,0.651-1.093,1.682
				c-0.058,0.947-0.058,1.771-0.058,6.255v5.194c0,2.858,0,5.19,0.117,6.458c0.088,0.797,0.295,1.326,1.183,1.446
				c0.411,0.06,1.061,0.119,1.502,0.119c0.324,0,0.471,0.086,0.471,0.232c0,0.208-0.234,0.296-0.562,0.296
				c-1.944,0-3.803-0.088-4.599-0.088c-0.679,0-2.54,0.088-3.72,0.088c-0.381,0-0.588-0.088-0.588-0.296
				c0-0.146,0.117-0.232,0.471-0.232c0.444,0,0.796-0.06,1.063-0.119c0.589-0.12,0.766-0.622,0.855-1.475
				c0.147-1.239,0.147-3.571,0.147-6.43V486.57z"/>
			<linearGradient id="SVGID_8_" gradientUnits="userSpaceOnUse" x1="309.0215" y1="477.5146" x2="309.0215" y2="500.6709">
				<stop  offset="0" style="stop-color:#00ADEE"/>
				<stop  offset="0.3387" style="stop-color:#0877B7"/>
				<stop  offset="0.6297" style="stop-color:#0D518F"/>
				<stop  offset="0.8596" style="stop-color:#113976"/>
				<stop  offset="1" style="stop-color:#12306D"/>
			</linearGradient>
			<path fill="url(#SVGID_8_)" d="M301.72,496.306c0.06,2.299,0.443,3.067,1.032,3.273c0.505,0.179,1.063,0.209,1.536,0.209
				c0.325,0,0.499,0.06,0.499,0.232c0,0.238-0.265,0.296-0.678,0.296c-1.919,0-3.096-0.088-3.653-0.088
				c-0.267,0-1.654,0.088-3.188,0.088c-0.384,0-0.651-0.027-0.651-0.296c0-0.173,0.178-0.232,0.471-0.232
				c0.388,0,0.916-0.03,1.331-0.146c0.769-0.239,0.885-1.094,0.914-3.659l0.265-17.465c0-0.592,0.088-1.003,0.381-1.003
				c0.325,0,0.595,0.384,1.097,0.913c0.352,0.385,4.836,5.193,9.143,9.471c2.006,2.007,5.989,6.254,6.491,6.725h0.149l-0.296-13.242
				c-0.031-1.804-0.295-2.363-1.003-2.657c-0.441-0.177-1.153-0.177-1.564-0.177c-0.354,0-0.472-0.09-0.472-0.267
				c0-0.234,0.325-0.264,0.766-0.264c1.534,0,2.951,0.088,3.568,0.088c0.328,0,1.447-0.088,2.892-0.088
				c0.385,0,0.679,0.029,0.679,0.264c0,0.177-0.174,0.267-0.528,0.267c-0.297,0-0.531,0-0.886,0.087
				c-0.829,0.237-1.063,0.858-1.092,2.507l-0.325,18.617c0,0.649-0.117,0.913-0.385,0.913c-0.323,0-0.679-0.324-1.003-0.65
				c-1.856-1.769-5.633-5.634-8.701-8.671c-3.215-3.186-6.489-6.873-7.021-7.433h-0.088L301.72,496.306z"/>
			<linearGradient id="SVGID_9_" gradientUnits="userSpaceOnUse" x1="333.5508" y1="477.6025" x2="333.5508" y2="500.3164">
				<stop  offset="0" style="stop-color:#00ADEE"/>
				<stop  offset="0.3387" style="stop-color:#0877B7"/>
				<stop  offset="0.6297" style="stop-color:#0D518F"/>
				<stop  offset="0.8596" style="stop-color:#113976"/>
				<stop  offset="1" style="stop-color:#12306D"/>
			</linearGradient>
			<path fill="url(#SVGID_9_)" d="M331.929,479.67l-4.397,0.117c-1.709,0.059-2.419,0.205-2.862,0.853
				c-0.295,0.444-0.441,0.795-0.499,1.035c-0.06,0.233-0.146,0.354-0.324,0.354c-0.207,0-0.265-0.148-0.265-0.474
				c0-0.471,0.559-3.156,0.619-3.392c0.087-0.385,0.174-0.561,0.351-0.561c0.238,0,0.532,0.296,1.271,0.355
				c0.854,0.088,1.979,0.146,2.946,0.146h11.684c0.946,0,1.593-0.088,2.035-0.146c0.445-0.089,0.681-0.149,0.799-0.149
				c0.206,0,0.233,0.178,0.233,0.619c0,0.621-0.087,2.656-0.087,3.425c-0.029,0.294-0.09,0.47-0.265,0.47
				c-0.235,0-0.294-0.147-0.323-0.589l-0.031-0.324c-0.06-0.77-0.854-1.592-3.481-1.652l-3.716-0.087v12.095
				c0,2.709,0,5.041,0.147,6.311c0.09,0.827,0.265,1.474,1.149,1.594c0.414,0.06,1.063,0.119,1.503,0.119
				c0.325,0,0.472,0.086,0.472,0.232c0,0.208-0.233,0.296-0.558,0.296c-1.948,0-3.806-0.088-4.633-0.088
				c-0.678,0-2.538,0.088-3.716,0.088c-0.385,0-0.592-0.088-0.592-0.296c0-0.146,0.117-0.232,0.472-0.232
				c0.444,0,0.799-0.06,1.063-0.119c0.59-0.12,0.764-0.767,0.854-1.62c0.149-1.243,0.149-3.575,0.149-6.284V479.67z"/>
			<linearGradient id="SVGID_10_" gradientUnits="userSpaceOnUse" x1="354.1084" y1="477.7783" x2="354.1084" y2="500.4072">
				<stop  offset="0" style="stop-color:#00ADEE"/>
				<stop  offset="0.3387" style="stop-color:#0877B7"/>
				<stop  offset="0.6297" style="stop-color:#0D518F"/>
				<stop  offset="0.8596" style="stop-color:#113976"/>
				<stop  offset="1" style="stop-color:#12306D"/>
			</linearGradient>
			<path fill="url(#SVGID_10_)" d="M348.947,486.57c0-4.484,0-5.308-0.058-6.255c-0.06-0.999-0.294-1.475-1.27-1.682
				c-0.237-0.06-0.738-0.087-1.15-0.087c-0.324,0-0.5-0.059-0.5-0.267c0-0.204,0.204-0.264,0.647-0.264
				c0.796,0,1.654,0.029,2.391,0.029c0.765,0.03,1.446,0.059,1.857,0.059c0.945,0,8.197,0,8.761-0.028
				c0.56-0.06,1.031-0.118,1.269-0.178c0.146-0.029,0.32-0.12,0.472-0.12c0.147,0,0.178,0.12,0.178,0.268
				c0,0.205-0.149,0.559-0.235,1.918c-0.033,0.294-0.094,1.591-0.149,1.944c-0.03,0.147-0.088,0.325-0.294,0.325
				c-0.208,0-0.268-0.147-0.268-0.411c0-0.208-0.027-0.708-0.178-1.063c-0.204-0.531-0.502-0.884-1.976-1.063
				c-0.501-0.056-4.985-0.119-5.574-0.119c-0.146,0-0.203,0.093-0.203,0.298v7.465c0,0.203,0.026,0.324,0.203,0.324
				c0.648,0,5.428,0,6.105-0.061c0.709-0.061,1.15-0.147,1.415-0.44c0.207-0.24,0.324-0.388,0.475-0.388
				c0.116,0,0.206,0.061,0.206,0.237s-0.12,0.651-0.234,2.151c-0.032,0.593-0.122,1.771-0.122,1.978c0,0.235,0,0.563-0.264,0.563
				c-0.205,0-0.266-0.12-0.266-0.269c-0.029-0.295-0.029-0.677-0.119-1.061c-0.148-0.59-0.56-1.033-1.652-1.152
				c-0.561-0.06-4.862-0.086-5.574-0.086c-0.146,0-0.173,0.12-0.173,0.296v2.331c0,1-0.034,3.716,0,4.57
				c0.057,2.035,1.915,2.479,4.922,2.479c0.766,0,2.006,0,2.771-0.355c0.77-0.353,1.123-0.973,1.331-2.182
				c0.061-0.325,0.116-0.441,0.323-0.441c0.233,0,0.233,0.235,0.233,0.529c0,0.68-0.233,2.683-0.381,3.277
				c-0.206,0.766-0.472,0.766-1.594,0.766c-2.212,0-5.221-0.061-6.486-0.091c-1.267-0.058-2.183-0.088-3.067-0.088
				c-0.327,0-0.978,0-1.682,0.03c-0.679,0-1.447,0.058-2.035,0.058c-0.385,0-0.592-0.088-0.592-0.296
				c0-0.146,0.12-0.232,0.472-0.232c0.441,0,0.795-0.06,1.063-0.119c0.592-0.12,0.738-0.767,0.856-1.62
				c0.146-1.243,0.146-3.575,0.146-6.284V486.57z"/>
			<linearGradient id="SVGID_11_" gradientUnits="userSpaceOnUse" x1="377.2363" y1="477.5146" x2="377.2363" y2="500.6709">
				<stop  offset="0" style="stop-color:#00ADEE"/>
				<stop  offset="0.3387" style="stop-color:#0877B7"/>
				<stop  offset="0.6297" style="stop-color:#0D518F"/>
				<stop  offset="0.8596" style="stop-color:#113976"/>
				<stop  offset="1" style="stop-color:#12306D"/>
			</linearGradient>
			<path fill="url(#SVGID_11_)" d="M369.937,496.306c0.056,2.299,0.44,3.067,1.031,3.273c0.499,0.179,1.06,0.209,1.534,0.209
				c0.324,0,0.501,0.06,0.501,0.232c0,0.238-0.267,0.296-0.682,0.296c-1.914,0-3.094-0.088-3.656-0.088
				c-0.266,0-1.65,0.088-3.188,0.088c-0.38,0-0.647-0.027-0.647-0.296c0-0.173,0.177-0.232,0.473-0.232
				c0.383,0,0.914-0.03,1.328-0.146c0.769-0.239,0.886-1.094,0.915-3.659l0.262-17.465c0-0.592,0.091-1.003,0.387-1.003
				c0.324,0,0.592,0.384,1.09,0.913c0.357,0.385,4.842,5.193,9.146,9.471c2.008,2.007,5.988,6.254,6.49,6.725h0.147l-0.295-13.242
				c-0.029-1.804-0.298-2.363-1.003-2.657c-0.443-0.177-1.149-0.177-1.563-0.177c-0.352,0-0.474-0.09-0.474-0.267
				c0-0.234,0.327-0.264,0.768-0.264c1.533,0,2.951,0.088,3.57,0.088c0.326,0,1.446-0.088,2.891-0.088
				c0.383,0,0.682,0.029,0.682,0.264c0,0.177-0.181,0.267-0.535,0.267c-0.293,0-0.531,0-0.883,0.087
				c-0.826,0.237-1.063,0.858-1.093,2.507l-0.324,18.617c0,0.649-0.116,0.913-0.381,0.913c-0.327,0-0.681-0.324-1.006-0.65
				c-1.858-1.769-5.634-5.634-8.702-8.671c-3.217-3.186-6.489-6.873-7.021-7.433h-0.086L369.937,496.306z"/>
			<linearGradient id="SVGID_12_" gradientUnits="userSpaceOnUse" x1="401.6309" y1="477.3662" x2="401.6309" y2="500.3164">
				<stop  offset="0" style="stop-color:#00ADEE"/>
				<stop  offset="0.3387" style="stop-color:#0877B7"/>
				<stop  offset="0.6297" style="stop-color:#0D518F"/>
				<stop  offset="0.8596" style="stop-color:#113976"/>
				<stop  offset="1" style="stop-color:#12306D"/>
			</linearGradient>
			<path fill="url(#SVGID_12_)" d="M397.398,492.619c-0.146,0-0.209,0.057-0.267,0.233l-1.594,4.221
				c-0.294,0.735-0.44,1.445-0.44,1.796c0,0.533,0.267,0.919,1.18,0.919h0.441c0.354,0,0.439,0.06,0.439,0.232
				c0,0.238-0.174,0.296-0.497,0.296c-0.946,0-2.213-0.088-3.129-0.088c-0.323,0-1.944,0.088-3.482,0.088
				c-0.381,0-0.56-0.058-0.56-0.296c0-0.173,0.119-0.232,0.357-0.232c0.263,0,0.677-0.03,0.91-0.06
				c1.358-0.18,1.919-1.181,2.511-2.655l7.402-18.526c0.357-0.855,0.531-1.181,0.828-1.181c0.265,0,0.442,0.266,0.737,0.943
				c0.707,1.625,5.426,13.659,7.314,18.143c1.123,2.655,1.979,3.07,2.596,3.217c0.441,0.089,0.887,0.119,1.24,0.119
				c0.236,0,0.385,0.028,0.385,0.232c0,0.238-0.27,0.296-1.359,0.296c-1.063,0-3.213,0-5.576-0.058
				c-0.531-0.03-0.885-0.03-0.885-0.238c0-0.173,0.117-0.232,0.412-0.263c0.209-0.061,0.414-0.325,0.266-0.681l-2.359-6.253
				c-0.056-0.148-0.146-0.205-0.294-0.205H397.398z M403.415,491.142c0.146,0,0.177-0.086,0.146-0.176l-2.652-7.287
				c-0.031-0.119-0.061-0.266-0.148-0.266c-0.09,0-0.146,0.146-0.177,0.266l-2.713,7.257c-0.031,0.12,0,0.206,0.115,0.206H403.415z"
				/>
			<linearGradient id="SVGID_13_" gradientUnits="userSpaceOnUse" x1="425.8174" y1="477.5146" x2="425.8174" y2="500.6709">
				<stop  offset="0" style="stop-color:#00ADEE"/>
				<stop  offset="0.3387" style="stop-color:#0877B7"/>
				<stop  offset="0.6297" style="stop-color:#0D518F"/>
				<stop  offset="0.8596" style="stop-color:#113976"/>
				<stop  offset="1" style="stop-color:#12306D"/>
			</linearGradient>
			<path fill="url(#SVGID_13_)" d="M418.518,496.306c0.059,2.299,0.443,3.067,1.031,3.273c0.506,0.179,1.063,0.209,1.537,0.209
				c0.322,0,0.498,0.06,0.498,0.232c0,0.238-0.264,0.296-0.676,0.296c-1.918,0-3.098-0.088-3.656-0.088
				c-0.27,0-1.652,0.088-3.188,0.088c-0.385,0-0.652-0.027-0.652-0.296c0-0.173,0.18-0.232,0.475-0.232
				c0.383,0,0.914-0.03,1.328-0.146c0.766-0.239,0.885-1.094,0.912-3.659l0.266-17.465c0-0.592,0.09-1.003,0.383-1.003
				c0.328,0,0.594,0.384,1.092,0.913c0.355,0.385,4.84,5.193,9.148,9.471c2.006,2.007,5.984,6.254,6.488,6.725h0.148l-0.295-13.242
				c-0.029-1.804-0.297-2.363-1.006-2.657c-0.441-0.177-1.15-0.177-1.564-0.177c-0.352,0-0.471-0.09-0.471-0.267
				c0-0.234,0.324-0.264,0.77-0.264c1.533,0,2.949,0.088,3.568,0.088c0.324,0,1.447-0.088,2.891-0.088
				c0.385,0,0.678,0.029,0.678,0.264c0,0.177-0.178,0.267-0.527,0.267c-0.297,0-0.533,0-0.885,0.087
				c-0.83,0.237-1.064,0.858-1.094,2.507l-0.324,18.617c0,0.649-0.121,0.913-0.385,0.913c-0.324,0-0.678-0.324-1.002-0.65
				c-1.857-1.769-5.635-5.634-8.701-8.671c-3.217-3.186-6.492-6.873-7.021-7.433h-0.092L418.518,496.306z"/>
			<linearGradient id="SVGID_14_" gradientUnits="userSpaceOnUse" x1="450.1553" y1="477.6025" x2="450.1553" y2="500.7285">
				<stop  offset="0" style="stop-color:#00ADEE"/>
				<stop  offset="0.3387" style="stop-color:#0877B7"/>
				<stop  offset="0.6297" style="stop-color:#0D518F"/>
				<stop  offset="0.8596" style="stop-color:#113976"/>
				<stop  offset="1" style="stop-color:#12306D"/>
			</linearGradient>
			<path fill="url(#SVGID_14_)" d="M443.564,497.515c-2.891-2.536-3.66-5.841-3.66-8.701c0-2.009,0.619-5.487,3.453-8.084
				c2.121-1.948,4.926-3.127,9.322-3.127c1.828,0,2.918,0.116,4.277,0.296c1.119,0.147,2.066,0.411,2.947,0.5
				c0.324,0.029,0.445,0.176,0.445,0.353c0,0.237-0.09,0.591-0.146,1.625c-0.061,0.973-0.029,2.592-0.09,3.184
				c-0.031,0.441-0.09,0.681-0.355,0.681c-0.236,0-0.293-0.239-0.293-0.647c-0.031-0.915-0.416-1.95-1.154-2.717
				c-0.969-1.03-3.271-1.827-5.984-1.827c-2.568,0-4.248,0.647-5.547,1.827c-2.156,1.976-2.715,4.779-2.715,7.641
				c0,7.021,5.34,10.503,9.291,10.503c2.627,0,4.221-0.297,5.4-1.653c0.504-0.561,0.887-1.415,1.002-1.945
				c0.09-0.475,0.146-0.589,0.385-0.589c0.207,0,0.264,0.207,0.264,0.442c0,0.353-0.354,2.92-0.648,3.925
				c-0.146,0.498-0.264,0.648-0.764,0.854c-1.182,0.471-3.426,0.676-5.314,0.676C449.641,500.729,446.246,499.848,443.564,497.515z"
				/>
			<linearGradient id="SVGID_15_" gradientUnits="userSpaceOnUse" x1="471.1895" y1="477.7783" x2="471.1895" y2="500.4072">
				<stop  offset="0" style="stop-color:#00ADEE"/>
				<stop  offset="0.3387" style="stop-color:#0877B7"/>
				<stop  offset="0.6297" style="stop-color:#0D518F"/>
				<stop  offset="0.8596" style="stop-color:#113976"/>
				<stop  offset="1" style="stop-color:#12306D"/>
			</linearGradient>
			<path fill="url(#SVGID_15_)" d="M466.029,486.57c0-4.484,0-5.308-0.063-6.255c-0.059-0.999-0.293-1.475-1.268-1.682
				c-0.236-0.06-0.738-0.087-1.15-0.087c-0.324,0-0.5-0.059-0.5-0.267c0-0.204,0.207-0.264,0.648-0.264
				c0.797,0,1.65,0.029,2.389,0.029c0.77,0.03,1.443,0.059,1.859,0.059c0.943,0,8.199,0,8.758-0.028
				c0.564-0.06,1.033-0.118,1.27-0.178c0.148-0.029,0.326-0.12,0.473-0.12s0.176,0.12,0.176,0.268c0,0.205-0.146,0.559-0.236,1.918
				c-0.029,0.294-0.086,1.591-0.146,1.944c-0.031,0.147-0.088,0.325-0.297,0.325c-0.205,0-0.262-0.147-0.262-0.411
				c0-0.208-0.031-0.708-0.178-1.063c-0.207-0.531-0.502-0.884-1.979-1.063c-0.502-0.056-4.982-0.119-5.57-0.119
				c-0.15,0-0.209,0.093-0.209,0.298v7.465c0,0.203,0.029,0.324,0.209,0.324c0.645,0,5.424,0,6.102-0.061
				c0.709-0.061,1.15-0.147,1.418-0.44c0.207-0.24,0.32-0.388,0.469-0.388c0.119,0,0.209,0.061,0.209,0.237
				s-0.117,0.651-0.236,2.151c-0.027,0.593-0.121,1.771-0.121,1.978c0,0.235,0,0.563-0.262,0.563c-0.205,0-0.264-0.12-0.264-0.269
				c-0.033-0.295-0.033-0.677-0.121-1.061c-0.146-0.59-0.559-1.033-1.65-1.152c-0.563-0.06-4.869-0.086-5.572-0.086
				c-0.15,0-0.18,0.12-0.18,0.296v2.331c0,1-0.031,3.716,0,4.57c0.059,2.035,1.918,2.479,4.924,2.479c0.766,0,2.006,0,2.773-0.355
				c0.766-0.353,1.119-0.973,1.326-2.182c0.063-0.325,0.117-0.441,0.324-0.441c0.238,0,0.238,0.235,0.238,0.529
				c0,0.68-0.238,2.683-0.385,3.277c-0.207,0.766-0.471,0.766-1.594,0.766c-2.211,0-5.219-0.061-6.486-0.091
				c-1.271-0.058-2.184-0.088-3.068-0.088c-0.324,0-0.975,0-1.68,0.03c-0.68,0-1.447,0.058-2.035,0.058
				c-0.385,0-0.592-0.088-0.592-0.296c0-0.146,0.117-0.232,0.471-0.232c0.443,0,0.799-0.06,1.063-0.119
				c0.592-0.12,0.738-0.767,0.855-1.62c0.15-1.243,0.15-3.575,0.15-6.284V486.57z"/>
		</g>
		<g>
			<path fill="#FFFFFF" d="M234.98,508.884c0.048-0.273,0.145-0.418,0.273-0.418c0.126,0,0.225,0.082,0.429,0.499l4.358,8.999
				l4.338-9.114c0.13-0.255,0.21-0.384,0.352-0.384c0.147,0,0.243,0.16,0.288,0.499l1.453,9.86c0.145,1.006,0.303,1.469,0.779,1.61
				c0.466,0.143,0.783,0.162,0.991,0.162c0.145,0,0.259,0.015,0.259,0.112c0,0.125-0.195,0.174-0.416,0.174
				c-0.397,0-2.604-0.049-3.241-0.097c-0.365-0.032-0.465-0.077-0.465-0.175c0-0.077,0.063-0.128,0.178-0.177
				c0.096-0.027,0.144-0.24,0.077-0.686l-0.957-7.023h-0.063l-3.479,7.246c-0.367,0.751-0.444,0.897-0.589,0.897
				c-0.144,0-0.307-0.322-0.558-0.8c-0.385-0.736-1.646-3.175-1.838-3.622c-0.141-0.336-1.102-2.346-1.656-3.546h-0.066
				l-0.828,6.354c-0.033,0.289-0.049,0.494-0.049,0.751c0,0.304,0.208,0.445,0.478,0.508c0.289,0.063,0.514,0.083,0.669,0.083
				c0.129,0,0.241,0.032,0.241,0.112c0,0.143-0.145,0.174-0.382,0.174c-0.672,0-1.39-0.049-1.678-0.049
				c-0.303,0-1.069,0.049-1.582,0.049c-0.156,0-0.282-0.031-0.282-0.174c0-0.08,0.093-0.112,0.255-0.112c0.126,0,0.24,0,0.478-0.05
				c0.447-0.096,0.573-0.717,0.654-1.259L234.98,508.884z"/>
			<path fill="#FFFFFF" d="M255.03,516.718c-0.079,0-0.112,0.033-0.142,0.126l-0.862,2.285c-0.162,0.399-0.24,0.78-0.24,0.972
				c0,0.289,0.142,0.497,0.641,0.497h0.236c0.192,0,0.24,0.032,0.24,0.126c0,0.129-0.097,0.16-0.271,0.16
				c-0.513,0-1.197-0.049-1.693-0.049c-0.173,0-1.053,0.049-1.882,0.049c-0.21,0-0.303-0.031-0.303-0.16
				c0-0.094,0.063-0.126,0.189-0.126c0.143,0,0.369-0.02,0.497-0.034c0.731-0.094,1.036-0.639,1.354-1.435l4.005-10.023
				c0.191-0.462,0.288-0.64,0.446-0.64c0.145,0,0.241,0.145,0.4,0.513c0.384,0.878,2.936,7.389,3.959,9.813
				c0.604,1.438,1.068,1.66,1.401,1.743c0.244,0.043,0.48,0.063,0.67,0.063c0.129,0,0.21,0.015,0.21,0.126
				c0,0.129-0.145,0.16-0.734,0.16c-0.574,0-1.739,0-3.015-0.031c-0.285-0.018-0.48-0.018-0.48-0.129
				c0-0.094,0.063-0.126,0.222-0.146c0.114-0.03,0.227-0.17,0.146-0.365l-1.278-3.381c-0.032-0.081-0.077-0.114-0.158-0.114H255.03z
				 M258.286,515.919c0.082,0,0.096-0.046,0.082-0.096l-1.438-3.941c-0.019-0.062-0.033-0.145-0.08-0.145
				c-0.049,0-0.079,0.083-0.094,0.145l-1.472,3.927c-0.014,0.064,0,0.11,0.063,0.11H258.286z"/>
			<path fill="#FFFFFF" d="M269.651,518.711c0.032,1.247,0.24,1.663,0.561,1.773c0.268,0.094,0.574,0.113,0.83,0.113
				c0.173,0,0.27,0.032,0.27,0.126c0,0.129-0.142,0.16-0.366,0.16c-1.039,0-1.676-0.049-1.981-0.049
				c-0.141,0-0.892,0.049-1.72,0.049c-0.21,0-0.352-0.014-0.352-0.16c0-0.094,0.096-0.126,0.256-0.126
				c0.206,0,0.492-0.02,0.716-0.083c0.415-0.125,0.479-0.59,0.497-1.974l0.14-9.45c0-0.321,0.049-0.543,0.21-0.543
				c0.178,0,0.319,0.206,0.589,0.495c0.193,0.206,2.621,2.807,4.95,5.123c1.084,1.084,3.235,3.38,3.508,3.637h0.082l-0.162-7.165
				c-0.016-0.974-0.159-1.277-0.544-1.436c-0.236-0.097-0.62-0.097-0.843-0.097c-0.191,0-0.255-0.048-0.255-0.141
				c0-0.132,0.173-0.145,0.413-0.145c0.833,0,1.596,0.047,1.932,0.047c0.178,0,0.784-0.047,1.563-0.047
				c0.207,0,0.372,0.013,0.372,0.145c0,0.093-0.099,0.141-0.291,0.141c-0.158,0-0.285,0-0.478,0.049
				c-0.446,0.126-0.577,0.461-0.591,1.356l-0.175,10.067c0,0.354-0.065,0.496-0.207,0.496c-0.177,0-0.369-0.177-0.542-0.351
				c-1.007-0.955-3.051-3.049-4.711-4.689c-1.738-1.726-3.509-3.722-3.797-4.022h-0.048L269.651,518.711z"/>
			<path fill="#FFFFFF" d="M287.707,516.718c-0.081,0-0.111,0.033-0.144,0.126l-0.862,2.285c-0.158,0.399-0.24,0.78-0.24,0.972
				c0,0.289,0.145,0.497,0.64,0.497h0.239c0.194,0,0.238,0.032,0.238,0.126c0,0.129-0.096,0.16-0.271,0.16
				c-0.513,0-1.197-0.049-1.693-0.049c-0.173,0-1.05,0.049-1.881,0.049c-0.208,0-0.304-0.031-0.304-0.16
				c0-0.094,0.065-0.126,0.192-0.126c0.141,0,0.366-0.02,0.494-0.034c0.736-0.094,1.036-0.639,1.357-1.435l4.004-10.023
				c0.192-0.462,0.289-0.64,0.448-0.64c0.142,0,0.239,0.145,0.398,0.513c0.382,0.878,2.937,7.389,3.956,9.813
				c0.607,1.438,1.072,1.66,1.406,1.743c0.239,0.043,0.477,0.063,0.672,0.063c0.127,0,0.207,0.015,0.207,0.126
				c0,0.129-0.145,0.16-0.736,0.16c-0.572,0-1.741,0-3.016-0.031c-0.289-0.018-0.478-0.018-0.478-0.129
				c0-0.094,0.063-0.126,0.223-0.146c0.113-0.03,0.222-0.17,0.141-0.365l-1.272-3.381c-0.034-0.081-0.081-0.114-0.159-0.114H287.707
				z M290.964,515.919c0.079,0,0.093-0.046,0.079-0.096l-1.436-3.941c-0.018-0.062-0.03-0.145-0.081-0.145
				c-0.049,0-0.081,0.083-0.096,0.145l-1.468,3.927c-0.016,0.064,0,0.11,0.063,0.11H290.964z"/>
			<path fill="#FFFFFF" d="M311.121,519.814c0,0.433-0.015,0.464-0.207,0.575c-1.036,0.543-2.603,0.718-3.846,0.718
				c-3.907,0-7.371-1.852-7.371-6.257c0-2.553,1.322-4.34,2.775-5.218c1.53-0.927,2.951-1.038,4.291-1.038
				c1.104,0,2.505,0.193,2.826,0.255c0.336,0.063,0.893,0.159,1.262,0.179c0.188,0.015,0.222,0.077,0.222,0.19
				c0,0.174-0.114,0.623-0.114,2.617c0,0.254-0.045,0.335-0.172,0.335c-0.113,0-0.143-0.081-0.158-0.21
				c-0.048-0.364-0.129-0.875-0.544-1.323c-0.479-0.509-1.755-1.245-3.557-1.245c-0.879,0-2.044,0.062-3.164,0.989
				c-0.892,0.751-1.467,1.948-1.467,3.911c0,3.431,2.188,6.001,5.553,6.001c0.417,0,0.975,0,1.356-0.179
				c0.242-0.108,0.307-0.319,0.307-0.587v-1.502c0-0.8,0-1.404-0.019-1.885c-0.016-0.543-0.155-0.794-0.687-0.907
				c-0.126-0.031-0.4-0.048-0.622-0.048c-0.144,0-0.24-0.032-0.24-0.129c0-0.128,0.114-0.158,0.337-0.158
				c0.83,0,1.834,0.048,2.313,0.048c0.495,0,1.342-0.048,1.867-0.048c0.207,0,0.318,0.03,0.318,0.158
				c0,0.097-0.096,0.129-0.207,0.129c-0.126,0-0.24,0.017-0.429,0.048c-0.433,0.079-0.592,0.353-0.609,0.907
				c-0.016,0.48-0.016,1.12-0.016,1.918V519.814z"/>
			<path fill="#FFFFFF" d="M318.77,513.446c0-2.425,0-2.873-0.033-3.383c-0.03-0.543-0.158-0.798-0.685-0.909
				c-0.128-0.03-0.401-0.049-0.62-0.049c-0.175,0-0.274-0.032-0.274-0.141c0-0.115,0.114-0.145,0.353-0.145
				c0.432,0,0.895,0.013,1.293,0.013c0.415,0.017,0.783,0.034,1.006,0.034c0.507,0,4.376,0,4.681-0.018
				c0.305-0.029,0.561-0.062,0.686-0.096c0.083-0.015,0.175-0.064,0.256-0.064c0.082,0,0.097,0.064,0.097,0.144
				c0,0.113-0.079,0.303-0.127,1.039c-0.015,0.16-0.051,0.861-0.081,1.051c-0.018,0.08-0.047,0.175-0.159,0.175
				c-0.11,0-0.144-0.076-0.144-0.221c0-0.11-0.019-0.384-0.097-0.573c-0.11-0.289-0.272-0.48-1.068-0.574
				c-0.271-0.034-2.641-0.065-2.959-0.065c-0.078,0-0.111,0.048-0.111,0.159v4.04c0,0.107,0.016,0.171,0.111,0.171
				c0.351,0,2.878,0,3.247-0.028c0.382-0.035,0.621-0.079,0.766-0.24c0.111-0.128,0.174-0.209,0.255-0.209
				c0.063,0,0.112,0.034,0.112,0.13c0,0.097-0.064,0.348-0.127,1.164c-0.018,0.319-0.066,0.958-0.066,1.068
				c0,0.128,0,0.304-0.144,0.304c-0.11,0-0.142-0.063-0.142-0.145c-0.019-0.159-0.019-0.365-0.065-0.573
				c-0.081-0.318-0.304-0.558-0.892-0.622c-0.303-0.032-2.579-0.049-2.959-0.049c-0.081,0-0.097,0.065-0.097,0.161v1.262
				c0,0.542-0.015,2.009,0,2.474c0.033,1.101,0.979,1.34,2.608,1.34c0.414,0,1.084,0,1.498-0.192
				c0.414-0.19,0.609-0.527,0.721-1.179c0.029-0.178,0.062-0.239,0.176-0.239c0.127,0,0.127,0.125,0.127,0.284
				c0,0.366-0.127,1.451-0.207,1.771c-0.114,0.418-0.256,0.418-0.865,0.418c-1.193,0-2.764-0.035-3.452-0.049
				c-0.684-0.031-1.179-0.049-1.658-0.049c-0.176,0-0.525,0-0.91,0.018c-0.369,0-0.781,0.031-1.099,0.031
				c-0.21,0-0.321-0.049-0.321-0.16c0-0.082,0.063-0.126,0.252-0.126c0.243,0,0.436-0.034,0.579-0.063
				c0.318-0.065,0.396-0.42,0.46-0.882c0.08-0.669,0.08-1.93,0.08-3.396V513.446z"/>
			<path fill="#FFFFFF" d="M332.743,513.446c0-2.425,0-2.873-0.031-3.383c-0.031-0.543-0.16-0.798-0.686-0.909
				c-0.127-0.03-0.399-0.049-0.625-0.049c-0.174,0-0.27-0.032-0.27-0.141c0-0.115,0.111-0.145,0.351-0.145
				c0.847,0,1.853,0.047,2.188,0.047c0.541,0,1.753-0.047,2.248-0.047c1.006,0,2.074,0.093,2.936,0.687
				c0.447,0.301,1.085,1.115,1.085,2.186c0,1.178-0.493,2.264-2.107,3.572c1.423,1.788,2.524,3.21,3.467,4.2
				c0.895,0.925,1.546,1.034,1.786,1.083c0.174,0.03,0.321,0.05,0.447,0.05c0.129,0,0.191,0.044,0.191,0.126
				c0,0.129-0.113,0.16-0.302,0.16h-1.518c-0.891,0-1.289-0.08-1.708-0.306c-0.687-0.365-1.293-1.113-2.188-2.344
				c-0.637-0.877-1.369-1.962-1.58-2.2c-0.077-0.098-0.174-0.115-0.288-0.115l-1.386-0.032c-0.078,0-0.126,0.032-0.126,0.13v0.221
				c0,1.486,0,2.747,0.077,3.416c0.049,0.462,0.145,0.816,0.621,0.882c0.241,0.028,0.592,0.063,0.783,0.063
				c0.129,0,0.193,0.044,0.193,0.126c0,0.111-0.115,0.16-0.321,0.16c-0.925,0-2.104-0.049-2.347-0.049
				c-0.301,0-1.307,0.049-1.947,0.049c-0.206,0-0.314-0.049-0.314-0.16c0-0.082,0.063-0.126,0.253-0.126
				c0.24,0,0.432-0.034,0.575-0.063c0.318-0.065,0.396-0.42,0.464-0.882c0.077-0.669,0.077-1.93,0.077-3.396V513.446z
				 M334.629,514.708c0,0.175,0.03,0.239,0.141,0.287c0.335,0.113,0.813,0.159,1.213,0.159c0.641,0,0.846-0.063,1.134-0.271
				c0.48-0.352,0.94-1.089,0.94-2.394c0-2.267-1.499-2.92-2.44-2.92c-0.4,0-0.686,0.016-0.847,0.063
				c-0.11,0.031-0.141,0.097-0.141,0.224V514.708z"/>
			<path fill="#FFFFFF" d="M347.084,519.86c0-0.396,0.29-0.972,0.978-0.972c0.541,0,0.97,0.367,0.97,0.926
				c0,0.56-0.381,1.021-0.99,1.021C347.374,520.835,347.084,520.311,347.084,519.86z"/>
			<path fill="#FFFFFF" d="M354.717,519.367c-1.562-1.373-1.975-3.159-1.975-4.708c0-1.084,0.331-2.967,1.866-4.371
				c1.147-1.057,2.662-1.693,5.043-1.693c0.988,0,1.578,0.064,2.314,0.159c0.604,0.079,1.117,0.225,1.597,0.274
				c0.175,0.015,0.237,0.096,0.237,0.19c0,0.126-0.048,0.315-0.077,0.875c-0.034,0.528-0.019,1.406-0.051,1.727
				c-0.019,0.24-0.046,0.365-0.194,0.365c-0.129,0-0.158-0.125-0.158-0.35c-0.016-0.498-0.222-1.055-0.621-1.469
				c-0.524-0.56-1.771-0.992-3.24-0.992c-1.386,0-2.299,0.354-2.999,0.992c-1.167,1.068-1.469,2.585-1.469,4.132
				c0,3.801,2.89,5.684,5.027,5.684c1.419,0,2.281-0.163,2.922-0.894c0.269-0.305,0.476-0.768,0.538-1.055
				c0.049-0.255,0.085-0.32,0.211-0.32c0.111,0,0.141,0.112,0.141,0.238c0,0.193-0.19,1.582-0.352,2.126
				c-0.078,0.27-0.14,0.352-0.414,0.459c-0.636,0.258-1.849,0.37-2.871,0.37C358.008,521.107,356.172,520.63,354.717,519.367z"/>
			<path fill="#FFFFFF" d="M368.702,514.851c0-2.729,1.805-6.256,6.591-6.256c3.976,0,6.452,2.313,6.452,5.969
				c0,3.657-2.558,6.544-6.611,6.544C370.554,521.107,368.702,517.675,368.702,514.851z M379.505,515.154
				c0-3.576-2.056-5.794-4.673-5.794c-1.833,0-3.926,1.021-3.926,4.995c0,3.319,1.837,5.955,4.898,5.955
				C376.921,520.311,379.505,519.769,379.505,515.154z"/>
			<path fill="#FFFFFF" d="M388.252,508.884c0.049-0.273,0.143-0.418,0.271-0.418c0.126,0,0.222,0.082,0.432,0.499l4.355,8.999
				l4.34-9.114c0.127-0.255,0.207-0.384,0.352-0.384c0.142,0,0.24,0.16,0.289,0.499l1.449,9.86c0.145,1.006,0.303,1.469,0.784,1.61
				c0.462,0.143,0.78,0.162,0.987,0.162c0.146,0,0.256,0.015,0.256,0.112c0,0.125-0.193,0.174-0.415,0.174
				c-0.395,0-2.601-0.049-3.24-0.097c-0.364-0.032-0.462-0.077-0.462-0.175c0-0.077,0.064-0.128,0.178-0.177
				c0.097-0.027,0.142-0.24,0.078-0.686l-0.958-7.023h-0.062l-3.48,7.246c-0.369,0.751-0.446,0.897-0.59,0.897
				c-0.142,0-0.304-0.322-0.559-0.8c-0.385-0.736-1.646-3.175-1.838-3.622c-0.141-0.336-1.102-2.346-1.656-3.546H388.7l-0.831,6.354
				c-0.033,0.289-0.049,0.494-0.049,0.751c0,0.304,0.207,0.445,0.48,0.508c0.285,0.063,0.508,0.083,0.67,0.083
				c0.125,0,0.239,0.032,0.239,0.112c0,0.143-0.144,0.174-0.384,0.174c-0.672,0-1.391-0.049-1.678-0.049
				c-0.301,0-1.066,0.049-1.58,0.049c-0.159,0-0.287-0.031-0.287-0.174c0-0.08,0.099-0.112,0.258-0.112c0.129,0,0.237,0,0.478-0.05
				c0.446-0.096,0.573-0.717,0.654-1.259L388.252,508.884z"/>
		</g>
		<polygon fill="#FFFFFF" points="333.577,464.28 333.577,465.582 478.973,465.582 478.973,465.495 478.973,464.28 		"/>
		<polygon fill="#FFFFFF" points="410.83,514.737 478.973,514.737 478.973,514.651 478.973,513.436 410.83,513.436 		"/>
	</g>
</g>
</svg>
