<?xml version="1.0" encoding="utf-8"?>
<!-- Generator: Adobe Illustrator 17.1.0, SVG Export Plug-In . SVG Version: 6.00 Build 0)  -->
<!DOCTYPE svg PUBLIC "-//W3C//DTD SVG 1.1//EN" "http://www.w3.org/Graphics/SVG/1.1/DTD/svg11.dtd">
<svg version="1.1" id="Layer_1" xmlns="http://www.w3.org/2000/svg" xmlns:xlink="http://www.w3.org/1999/xlink" x="0px" y="0px"
	 viewBox="0 0 72 72" enable-background="new 0 0 72 72" xml:space="preserve">
<path fill-rule="evenodd" clip-rule="evenodd" fill="#4C4D4D" d="M61.8,26.4c1.6,0,3,1.4,3,3c0,1.7-1.3,3-3,3H30
	c-0.7,0-1.2-0.5-1.2-1.2v-3.6c0-0.7,0.5-1.2,1.2-1.2H61.8z M15.6,54c-4.6,0-8.4-3.8-8.4-8.4V4.8C7.2,2.2,9.4,0,12,0h8.4
	c2.6,0,4.8,2.2,4.8,4.8v27.6c0,2,1.6,3.6,3.6,3.6h34.8c0.7,0,1.2,0.5,1.2,1.2C64.8,46.5,57.3,54,48,54v12h3c1.6,0,3,1.4,3,3
	c0,1.7-1.3,3-3,3H12.6c-1.6,0-3-1.4-3-3c0-1.7,1.3-3,3-3h3V54z"/>
</svg>
